<mxfile host="app.diagrams.net" modified="2023-12-01T10:42:41.785Z" agent="Mozilla/5.0 (Windows NT 10.0; Win64; x64) AppleWebKit/537.36 (KHTML, like Gecko) Chrome/119.0.0.0 Safari/537.36" etag="nTwogh31KLlkt0sS3Lkk" version="22.1.5" type="github">
  <diagram id="6a731a19-8d31-9384-78a2-239565b7b9f0" name="Page-1">
    <mxGraphModel dx="1434" dy="746" grid="0" gridSize="10" guides="1" tooltips="1" connect="1" arrows="1" fold="1" page="1" pageScale="1" pageWidth="1169" pageHeight="827" background="#CCFFFF" math="0" shadow="0">
      <root>
        <mxCell id="0" />
        <mxCell id="1" parent="0" />
        <mxCell id="-BEQtp0c2egYkK-Se_0I-2081" value="" style="group;shadow=1;rounded=1;fillColor=default;" parent="1" vertex="1" connectable="0">
          <mxGeometry x="955" y="83" width="165" height="670" as="geometry" />
        </mxCell>
        <mxCell id="2023" value="" style="rounded=1;whiteSpace=wrap;html=1;dashed=1;strokeColor=none;strokeWidth=2;fillColor=#FFFFFF;fontFamily=Verdana;fontSize=12;fontColor=#00BEF2" parent="-BEQtp0c2egYkK-Se_0I-2081" vertex="1">
          <mxGeometry width="165" height="670" as="geometry" />
        </mxCell>
        <mxCell id="2029" value="Reports" style="whiteSpace=wrap;html=1;strokeColor=#CCFFFF;strokeWidth=2;fillColor=#3399FF;fontFamily=Helvetica;fontSize=18;fontColor=#FFFFFF;fontStyle=1;rounded=1;shadow=1;" parent="-BEQtp0c2egYkK-Se_0I-2081" vertex="1">
          <mxGeometry x="2" width="165" height="60" as="geometry" />
        </mxCell>
        <mxCell id="-BEQtp0c2egYkK-Se_0I-2071" value="Cucumber Report" style="shape=ext;double=1;rounded=1;whiteSpace=wrap;html=1;shadow=1;glass=0;sketch=0;strokeWidth=1;fontSize=16;fontStyle=1;fillColor=#00C800;strokeColor=#CCFFFF;fontColor=#ffffff;" parent="-BEQtp0c2egYkK-Se_0I-2081" vertex="1">
          <mxGeometry x="5" y="134" width="155" height="47" as="geometry" />
        </mxCell>
        <mxCell id="-BEQtp0c2egYkK-Se_0I-2097" value="Galen Report" style="shape=ext;double=1;rounded=1;whiteSpace=wrap;html=1;shadow=1;glass=0;sketch=0;strokeWidth=1;fontSize=16;fontStyle=1;fillColor=#00C800;strokeColor=#CCFFFF;fontColor=#ffffff;" parent="-BEQtp0c2egYkK-Se_0I-2081" vertex="1">
          <mxGeometry x="5" y="315" width="155" height="47" as="geometry" />
        </mxCell>
        <mxCell id="-BEQtp0c2egYkK-Se_0I-2098" value="Email HTML Report" style="shape=ext;double=1;rounded=1;whiteSpace=wrap;html=1;shadow=1;glass=0;sketch=0;strokeWidth=1;fontSize=16;fontStyle=1;fillColor=#00C800;strokeColor=#CCFFFF;fontColor=#ffffff;" parent="-BEQtp0c2egYkK-Se_0I-2081" vertex="1">
          <mxGeometry x="7" y="496" width="155" height="47" as="geometry" />
        </mxCell>
        <mxCell id="-BEQtp0c2egYkK-Se_0I-2083" value="" style="group;shadow=1;rounded=1;" parent="1" vertex="1" connectable="0">
          <mxGeometry x="489" y="83" width="165" height="670" as="geometry" />
        </mxCell>
        <mxCell id="2021" value="" style="rounded=1;whiteSpace=wrap;html=1;dashed=1;strokeColor=none;strokeWidth=2;fillColor=#FFFFFF;fontFamily=Verdana;fontSize=12;fontColor=#00BEF2;shadow=1;" parent="-BEQtp0c2egYkK-Se_0I-2083" vertex="1">
          <mxGeometry width="165" height="670" as="geometry" />
        </mxCell>
        <mxCell id="2027" value="&lt;div&gt;Cucumber Layer&lt;/div&gt;" style="whiteSpace=wrap;html=1;strokeColor=#CCFFFF;strokeWidth=2;fillColor=#3399FF;fontFamily=Helvetica;fontSize=18;fontColor=#FFFFFF;fontStyle=1;rounded=1;shadow=1;" parent="-BEQtp0c2egYkK-Se_0I-2083" vertex="1">
          <mxGeometry width="165" height="60" as="geometry" />
        </mxCell>
        <mxCell id="-BEQtp0c2egYkK-Se_0I-2057" value="" style="rounded=1;whiteSpace=wrap;html=1;dashed=1;strokeColor=#9999FF;strokeWidth=1;fillColor=#FFFFFF;fontFamily=Verdana;fontSize=12;fontColor=#00BEF2" parent="-BEQtp0c2egYkK-Se_0I-2083" vertex="1">
          <mxGeometry x="7" y="263" width="150" height="396" as="geometry" />
        </mxCell>
        <mxCell id="-BEQtp0c2egYkK-Se_0I-2059" value="Environment Files" style="sketch=0;html=1;aspect=fixed;strokeColor=none;shadow=0;align=center;verticalAlign=top;fillColor=#3B8DF1;shape=mxgraph.gcp2.files;rounded=0;glass=0;rotation=0;fontColor=#666666;labelPosition=center;verticalLabelPosition=bottom;" parent="-BEQtp0c2egYkK-Se_0I-2083" vertex="1">
          <mxGeometry x="51.56999999999999" y="320" width="61.86" height="60" as="geometry" />
        </mxCell>
        <mxCell id="-BEQtp0c2egYkK-Se_0I-2060" value="Galen Spec files" style="sketch=0;html=1;aspect=fixed;strokeColor=none;shadow=0;align=center;verticalAlign=top;fillColor=#3B8DF1;shape=mxgraph.gcp2.files;rounded=0;glass=0;rotation=0;fontColor=#666666;labelPosition=center;verticalLabelPosition=bottom;" parent="-BEQtp0c2egYkK-Se_0I-2083" vertex="1">
          <mxGeometry x="54.06999999999999" y="410" width="61.86" height="60" as="geometry" />
        </mxCell>
        <mxCell id="-BEQtp0c2egYkK-Se_0I-2061" value="Language Files" style="sketch=0;html=1;aspect=fixed;strokeColor=none;shadow=0;align=center;verticalAlign=top;fillColor=#3B8DF1;shape=mxgraph.gcp2.files;rounded=0;glass=0;rotation=0;fontColor=#666666;labelPosition=center;verticalLabelPosition=bottom;" parent="-BEQtp0c2egYkK-Se_0I-2083" vertex="1">
          <mxGeometry x="54.06999999999999" y="510" width="61.86" height="60" as="geometry" />
        </mxCell>
        <mxCell id="-BEQtp0c2egYkK-Se_0I-2058" value="Resources" style="shape=ext;double=1;rounded=1;whiteSpace=wrap;html=1;shadow=1;glass=0;sketch=0;strokeWidth=1;fontSize=16;fontStyle=1;fillColor=#00006B;strokeColor=#CCFFFF;fontColor=#ffffff;flipV=1;" parent="-BEQtp0c2egYkK-Se_0I-2083" vertex="1">
          <mxGeometry x="7.5" y="263" width="150" height="47" as="geometry" />
        </mxCell>
        <mxCell id="-BEQtp0c2egYkK-Se_0I-2074" value="" style="edgeStyle=orthogonalEdgeStyle;shape=flexArrow;rounded=0;orthogonalLoop=1;jettySize=auto;html=1;fontSize=16;fontColor=#6666FF;startSize=6;endSize=5;strokeColor=#99CCFF;strokeWidth=1;fillColor=#DAE8FC;" parent="-BEQtp0c2egYkK-Se_0I-2083" source="-BEQtp0c2egYkK-Se_0I-2073" target="-BEQtp0c2egYkK-Se_0I-2058" edge="1">
          <mxGeometry relative="1" as="geometry" />
        </mxCell>
        <mxCell id="-BEQtp0c2egYkK-Se_0I-2073" value="Step Defs" style="shape=ext;double=1;rounded=1;whiteSpace=wrap;html=1;shadow=1;glass=0;sketch=0;strokeWidth=1;fontSize=16;fontStyle=1;fillColor=#00006B;strokeColor=#CCFFFF;fontColor=#ffffff;flipV=1;" parent="-BEQtp0c2egYkK-Se_0I-2083" vertex="1">
          <mxGeometry x="7.5" y="71" width="150" height="47" as="geometry" />
        </mxCell>
        <mxCell id="-BEQtp0c2egYkK-Se_0I-2084" value="" style="group;shadow=1;rounded=1;" parent="1" vertex="1" connectable="0">
          <mxGeometry x="260" y="83" width="165" height="670" as="geometry" />
        </mxCell>
        <mxCell id="2020" value="" style="rounded=1;whiteSpace=wrap;html=1;dashed=1;strokeColor=none;strokeWidth=2;fillColor=#FFFFFF;fontFamily=Verdana;fontSize=12;fontColor=#00BEF2;shadow=1;" parent="-BEQtp0c2egYkK-Se_0I-2084" vertex="1">
          <mxGeometry width="165" height="670" as="geometry" />
        </mxCell>
        <mxCell id="2026" value="Unit/Integration Framework" style="whiteSpace=wrap;html=1;strokeColor=#CCFFFF;strokeWidth=2;fillColor=#3399FF;fontFamily=Helvetica;fontSize=18;fontColor=#FFFFFF;fontStyle=1;rounded=1;shadow=1;" parent="-BEQtp0c2egYkK-Se_0I-2084" vertex="1">
          <mxGeometry width="165" height="60" as="geometry" />
        </mxCell>
        <mxCell id="GWbdKrJWIhSH5sj52bIB-2086" value="" style="shape=image;verticalLabelPosition=bottom;verticalAlign=top;imageAspect=0;image=data:image/png,iVBORw0KGgoAAAANSUhEUgAAAUEAAACdCAMAAAAdWzrjAAACNFBMVEX///8AAAD///3//v+FhYV3bVjm5ua/v793WEDq6ur///z//v36+voBAAPv7+/x/P0dKjf///UnPlXa2tr19fXd3d0ACSC4uLjLy8vU1NQVFRUuIRQLCwurq6tzc3OdnZ1FRUVPT08sLCxWVlY9PT3KITZhYWGKioqSkpKjo6M5OTlpaWnGxsYuLi7e6vgeHh56enoWAADzkyLndiXdUyzKAB7IIDjDID0bGxu9IEO6IUa0H02rIFZdXV3JwbaHkJilmo/99eeCl6YAKEjP4O0oDQDFuaUAFjNyXU/D0N1qgJL+9eaFa1UbFAx1goqOhYAkLTKTnqdSSkE9PkgQFiF1d4ZsSi1XaX+AbWBDNCGuwMw9UmSsno01SWNVOy8TKjihsL6YelmVfmoADi5cRC+bi2nm3M8sP0xwXUsAIEY3IgMcLkhYSDefjns/XXfRvqxSORzj28IjRWMsAAC8pJWWo7tMPDQAEidOKgU1MiEFAxNabXv3w4775dDwggD3tX35oD351bLyoV/4t2jkbADyvp3tmV34qEbqhkTocyriXADmhFXtnHPogFj1zcDoim7ibTbsoI3aPBLurZjidVjgYULx0tDaRy/eZlHZYWbqrrLfdm3VOzHaUkfmkI3jh4jUS1bacoDnpK3uvcW+ACTFTWfZhpny19+/XHveq7mqH1y1Q26ZAFeyfaSQG2ufQ36EJHjTsc6xYo6INXySS4ynbZy+oL90EHqKYaGXfra2q8h6dZp1T2L5AAAVW0lEQVR4nO1di38bxZ2f3TUy2l3JBK2wZaxYciy/X9iORGInxIWWJi3kEmjTJlzhoGd6BOhRGrhLeaRHCDhwrUkBE+ML8StK3AScxnFS+OduXrv7m91ZWY5FHIX9lo8rzc7Oznz3955dBaEQIUKECBEiRIgQIUKECBEiRIgQIUKECBEiRIgQIUKECBEiRIgQIUKECBEiRIjvFwb9DyFNq+CgmqqxYVW1gqPe0TBUVEkGDQ3t3tXbm3kE3eUMGvh/VgQjjipKIDIMdI9CUFfJUe9AYAHZ00QW2tTVpxqVHfmHwaCBxh5SGH5U6bE5g3e5Fmvo95xA5dHKWizjB8Kgin5lM6g8VtGRfygMGvEfK0qM/k+uxiVso/+QQX2w/dllUOajSOxUUd+1WfgJIbAJMxhTHg/sJKPRCHA8drMgg0bQraio89oc3EMYfPKn5K+yt5ID/1C0eIxRRyVR2WfLhIr0VCoVId+shub25p448TL0P4MQkmzobMetCdqVQqNnJnua2ztqk4goM4gHrYaO9uYGi8SIjoDyzumURWPHKoWmEiVWlDf7fqYQNX62TtcoIyr6OWnvQ/qeJygNsScxdTpeKj4c2d9r+55/OYA76+QEfBDtPsibnzqMdJdBe4ynD+CujEMDdG78Bb49VWoQNbzsXxLmDiH8/0yNKYPYlN1LnfP4g46jvt/CvOKVbnF9N8F9LGAmB34Kmvchm8FY5NdO6yGeJausc0zhfw5vKg0bgaoyJcYr+CNdzD5HKymD6Yf4MgmO1BnEeTwDeMLkK/+KmKfY8hu3K5Fm2w4ef4L1oyMd43UG/TeKO3KsiinUGR8P9CFjjC7lcYsu0OAM2quM0f+eI0KI/o0d6G95iFNI3Y+Knhc4ebaPMxgTx8B3gZBI3ZfydE1z+0E6yAt1enUqsoZ+Sxb3KlkUo+wwlEEqOk/Wpw8yEu7XdEztv5O2WssyrfFf0zByH+0/zrh7sT4e3Y011GGQnvpIfeeDbIzD2EyoOA0iXw5RA/AMvkyMhKL6ptFw6zD4ug+T2T/DLRV3i1wG7+sjX55ny38MGTo+5RGychL1jVOCXkRulyPs5PEfH0Eug0ejuGkLs4Y/wg5JRb8jN+dROohGvijKf1RrDYzRVkcYHGOU1UEZVF6sI9GLuuUl+u2AXS5VVZxQ4E9ECJX7SMvYS5RB7LxpDzOuO1p8tI6mH7sVLu4IRR8iDB5AzKmwQKqvKmUQ6S+TpbxK1qEav+PyyEBlMMZCbBW9Qo/tY5GIG71RB0698ThV6Ffh4HY008e+sBLQ/WQ0Vsuws3CmBxUN5m8fxrmH0Ik+MW9sk3AvczGELM1e8x/oESakViSVSL7sMPhH2uEAHFyosOL45UHGIM6b99D27q0Mu4Q7V2V4hTDwAC+BjlHdYiLjMEg+6iqXk0e5kUx1dCk2OIN7qBI/Bwd3GKSbJQ6D3G17UZUMGvp/UjtWw7D/CUoIjlk0Q2AQS03EYRCzedBZdsxhcD/13AINAoPIZdBg+U4sFhMZrD5XoqHXFGERjJIjRKcFLQYMqswjgMUDBpUABhk1XgZF9Fdh/UElShzzU3i8z42oGYO462v04B+YQyDnPFDTma6vf8Nh8BVK63PwAkEM2vsniTiAWYWbonjGr/tkkNFA4grIoO0oDtFP5Jw/seZ7SX/bk8Ts4JojgEGDCqziqYirVajEtnuINTlgJB5xGaTWiVRdWKRzwK7ZxOoMGgz/0mFwnBL7AmVCxTfHMkpoMbsfxxzSnJpXdcHgLvFw1AHfc+qztTjGKeTRsLIXU/My+fA4KSBiDn/rMDj2up06G9h1G3uO1JXQYnbr7ndq/Gp1UqiyJb0JtnO3vM6FQ7MjahbipZiyHzVVWxoJP6wswRmkiVqMxzMNB5UX+kposU6zcaDz0fqq3FTezcvS9taQqnGpPEq+OZWF49kW/vEYyfBeoawdieNl38NCEsbg73nxJZbJkOTjeAkGdVbWVZSn6qPIiPZ0vlGl4eDzlJe9jgIZGne51MZzLXZdjHLUIu7yNd7c0mJ7Hl5j/Tlw7LHSMoh4Bgnw3GYwsEGMvcTXZ++t4YVuYfUBsutJtfjpDFjkXuIiiJy6TD37oK3F2C6+ASusRwPtIL3a2BsCf7HbzGC0s0ZAe23J7mmxd02HRZuZOT+ENLsmouk6V+NHEWfwzT4nATuOhZXUXVT9HmfhL0b/S1FsBtEW94By32NIkzJ4lF9M3y9Q+Gbf98JUAOJeDVCU5uDeZsbXu5seGG/BwtTreUxh/L+PKyzas7O6cep8ew+And1UNx3mqXpsCbDY/cI9e4A9w9TdQ74Z6Cf9+MufGIE62o8PNj7iFLHie7gcxjIdDRWgZR1o9jOYCe69zd+7jR4wwF8HbljrRtR6IkGk1inCk1MiiaTmnGyAA/FkIsoGcvqLobIGdzajiUSSasTt3e7M+jlRAjv3SDpzidVI0cWbCZBdDBXmJNxK+pdo6IZKYme3MmrwxEzFH7BbUtk5usHOpwd11UneNBqq21e9rZBwophBnXslnZnZVDVeaIZQEdtRdxnUnB7SJz+QphvCdy5zGpBMm1fPqQYNowz6PMhtlcGkjMFEQOd6Wed4OZcR8+K7ClJS6gM6t8g6l3WZu5jBDhkpnfK+aVnftrIucxcz6I9OMLZKu5pSEewo4yIq2UQiuVlVbqCtgUYZK13Srp2yrkrp+JsCG/bdJJZ7sioT/jWQkLIitW1mk7RrdO2LOA9X3o0iWCtnMCLpKgm9MVqstS9iMAoNXQNxtKqVEXNUQaW5Xc6gJC8y5T3LcyReMCbXfOHEqAIKJVkagSScCeC6/ZYuq6OfvfX+22v3Uyv7Vs/3AEvqXhWlxtczKu+o9NzSdTU0OPjOO++u3fGOt5zSjARjl69njbxjf7AZtCKRZCKZjERlOeLbgxiYQi2YIl1DY++eeFeX71tGkwmMSGD+GYBoJImnBCZtNRBEow0kD0s1lJVgQQQ4EiXj7RgJ6LhNOqxVW7MrY4t3Y2+mO53y9PjzIKXw7RKvgGi0E2HZS2Eq3d3KA4OWbGdQMGDSnWNAVqIj29XEz+pI8kaWJdR3Ky0mSpUVm4nYGkCMT7SCOkpKiVY6K+nY2CHc3rcog4P/U0pN37JZFhiM1PR7b7ds2T2OfeIhf48nd9hlxxttpJDSS+KP3jKTfLjYAF584UyQtvvNIK+XrsX2e4ODJwYHh04GexPjPUbyO+9DBpPS4TO+UghcGZ1Wq/8s7i4z/UTFskoyrXS1rNcqBOmmrzqzK6ifh+mUNEm0scud33uDJ04MDg2dfD+QwFODlGSixo4/tgaChk57Tm8QGDTl51HZjSoDpHutUtOU7upeJ4HyUgGFKFsBmYviTV7kQbcLN3g8NXjigyGMUwEz00+dHBz84ASTQZvB2oeDh/aYE5iBxhPZgJOICU0R9puVeEbpRWUl+QICYjzfhOAMumA30ZEEBJcAjqh8OPThqYmhiYkh+cSMj04ODX3wAbeDHAHhgHdoimBbAoGlD5OXILYQDSgNDbJMojSgzjX1tHrGdtAjHIBTaA4aLQC9DoMTE6cmME6Pyealf3R6YuLD95geb2FtZnaNsQXDs/ZUKLDjqCexb3MaNTSj1EAZKaoIOFibcI8FgwCo6TKF7A4qu0dEmjJt3d1Zb+nHtpuYwY8xgZOnJa7EQP97enLio48niJoPfcyyY0viCkRkwRCSDUgpvEHWeiF42FohOGwFTgm2J8XJgXsmFru3ptghq0dUbTtdnJw8/cnE8OTw6b9I5vXX4eGJyY+xGGICT47RxM67y9o60F7jNRrAqwXFuV54HdB6ISza45kBN+Dut4tertHtZEFpa4EaJZgke8qYu0+GMc5IGPzkDD7wt9NEyYdOvsueBRTYytoBYK0g4sDy+CrvjR09UfJeqaf51rJ6F4LeIXEnzo3068VOcBJA1+GcewVzImTU9to/HR7+q82gBqoHhsoJ/Gx4klA4oftmmgGmQzSO7pyFZnxHnUqJKcZl/vx/fYButc1zXXea4D4TCYJTcB2JBcuvHusCcwg7mSIMfjY8NXxm+nNh31NF585MTQ1/QuidnJzgSg6VUly0BQd3PalofttgHizUUjbIoOATyOYSTN0cckDM2Eq+wxm4U4aC6p0WPMM2r59OTZ37Ympq6rOzZ8WkbXr7zNTUp1QOhydP/41mfVaJwWFI68xZTKHEIE9Q8A1qcQqOReQGKqhtVGBtn8ilYCzdLBLMOeu5DFy/swHz5dTUl5jBmdz2XNwRQlVDny/MzMxMTVMCh4c/ZX64O3hwYT6OUREerfCcIqy6xBNC5UBwJKanoZV3Arcs451AF3DYVqIhQeHLzeGojrE/NzXzf1/NzORyue2fg/pMPL+Qm5mZxmI4hQn8TKfVbOi7/NsPQMIdroRMoVSKv+5SjAiYLNKLw6nyfC0ORLDBy0dZWWQcKrFzz+e2E6JyjEEbqnZ2Abec+5IwOHXmC34z2tzzJduwIFJwQjDoub2nCAzK9oPWgSwYipoXIdRjjg2IIOML0l6ODgiZjutj5rfncnM5inl73Qa6gAlcODtNFHnqi3N/MXTNs2TJ7gO4QfaulwmDCm+iBnP8/nUXVAXEYZ7O4jTFe2UolYxSSPuaEX281hP1OvEGZnCBMXh21qLvK2KyPse05grzjNjczFesK3T+2aTnChEYbTZxQqBt9FU6oRLJ68NlQyi4sJnBwD/taWAmDGp1sA6Y8XhDuhloH0fG6VEkDBYIUecLTAY1ZOWJUs+f5wzm4qqXjrXAGYTBj28vEfriDQYzMA5oZNeG4QwJb6AIsh6CI5EMGk32dGxtC9i/AjbJ3E6kj/C0MGtr8SzR4a/IX2ofp1l5f62KGYBtB6Ej8eVtcI1BT1iVCZ8j8ecbwIbx2wWTA9/tTXb6KgkiwHIISXML+Xw+d3aOtczjb7nz09s5gbN8OznobkhgezYo/L7qdbbUwfUBDsWjDCiWLYLJeJibE+gXPE941a5ZPXENp4rO5/ILlMF8/jxtsgoFzOB8nqswpzVwl1UGLuJxkKc87F01TJ4a113MEoeC1+biLJhGEyZAnC0hjRG8XK13/0eCJuD6vlrILUzn8vlCobBAm2fxpzzWYUrh+VmbQenzjQHo8J/i27aFZrXVe3B9EOKilISgbUCmermFEQJ6GAoE7eUJcA2nhqYXCvnZRcxaYUd+HrcU8zsKhZ3z+UKOaPb2Wf708HrMoH1Loa/wPQkJ1Uz+kF/ZEByJLc5BimjXGeD2A1SQrOSc/u6O+kgUunc44+JCobA4l9+BUSDytkg+TC8SVc7nCtPOw/5l3RqGAclkfHuJJb3M+gB9giMcAfPNyI6DjMQbt2Q7e+xIB8ZrcMYmkb65AmFwxyx2Izt27tyxOE1kEmv2+TmHQaGyWlMrR306Xd/jxJrwDN/uJRxvg++dwNKWk64GbOY4l4LRoMuHWM/sFgLtLDjiHsD0zBKZw7xhLCJtcQQzOE8IpRxaTsEGTrO84ANauibfUTjTMpkKgiKbmnz705E2uSMRLGpvQ/Bl3FYc6c0Vdu64sEgZHEHzO0dGds7NUonErmUOabYdBAyWuR1eMnOHc20pk6kA+Epb/lYHTu4hlB6c9UBF7fasUshCQbuGilj+Ll7AzI2MLKKL5O88YZNQuBN0BCluV3kMlnQk0kLRrUGQNqfVkr1y0yE9yeEjImu0Ac2COGNzEbM3RwgcuVgcGR0ZuUQ0mVCYL4JuYEIlnhODKGnp4Hw26EigT+h1myWb5iDuhB7D4QPGG756GxwIzljT0AXM3SXK4KULo6OjF8lnQmFhDg6QBQPIntKKpwgScVc+4SV9nEOzusGMBCZLIMGWPMXQKT/JaYaTKlUI8c64iBm7cBFzN1Jcwn/mRymbO3dcFH4VGZoIvycxHUHI2BRCu+HP3OF81vuUkQghIwHCIXEl7kGhTGLbTph2eWcsvoHinfHfseAR6ft78fLo6AXyiTB4QXzuF1o1f0XXjV/tmF8ozPhCZmjnM+XwFAzBJwDh8LuSdMBJtrjBe+5Nk4RHpnwzvoQ5uzS6NDp/5eulpeIoASaw1EQ9Zi0OEgBnmlCLfCXgUhti64Qga0A4fA8KAhspWDxHa4RdHVGLxTjR5/q0paXRS0tL36wuf3350sUlosqj874fNhfGgBSacDpunSgLWn0lYHhLK+hIMqA97i1PQd8AbZKjIAKD8L56H9rzCoSGVr++fOHi5WvLy8vfzBMCly6Zpvsz8pJFK0o7ewUbmclmWMpw3bSwH+xzPdBPe8vd6wQcShBnT2YMtwpNeMzhQ1AzpcOOHSPN3sKeRwWxuTOXv/7m6jLB1X9c/seloh69UvS9d+ytUbds697ava1LbHTZgErkq73AjY3Giu+RcHhSXFjIF0p1joL4VjiQTnduldRFPQKhaXEL03f1BiZwBX+4trJybbkoeXNb+vapCFA/gI7E53mgza78HgmH+PqhQK7gZVxqyygMEjzsu+fFK1iBV1eICK5QSbwu/6eJ/PstHkBLA0NmnyOB1n+DGQn0SaI4C8+N9QonQcsNFKQMGSHwZRSYK+vK8rUry8s3qSBev3pV/hLYGo8Otgj+Au7s+TISaFMrvdnuQDBr4lWg9wF7JMEvBAjwZrXsFxFWb1y/caNIJfDGdSvgLTpprmljm3BnrJJ7iTDj2qAjgXdKjIugsRO5NaUZCQouxLek4Ywz3jloBrJWV26srl5bvb6ysrJaJL82IX+NrsQTwJ48BVrlXu8wkN7+DWYk8gewKEA4I95DQdaEDE36xCh5Zg8+BOF/0YxsOF0p3lwtFq+uOeNm6cvNjc1eHqAK+R7Mh9Jxa++kunAD9ybvA2C19lxbvRXyAWcVTR4bHfXVttuYAXBNZ7/0FcZiEa1eRyjAAELE074H3bfV++XIcsMcfw5ougFtVxkvlpeG/SuLEX9URP7BPnJIsgr7LP9JkY5um9/GbR3uC37RCIe0MqXifjdXiT6X8x5xsnOrbRAbd9Wk5RyY9hWl4Z4znY3p8PcFM55IReLrmRu2e8XVVVMt/2V20zTxJe7M9W8KDHQTfVtcu1+IAGjG1VUUWd3saVQxVHQThy//3OxpVDP2fov/fBtB+p3+cwp3LL4zcQwdP1YFP+lxh2LvMUS8yXdV+fvRmw/M2ncW/Sfnvk2EFN4KdJQ4xj5ZxzZ3JtWLqMmeU1XjoQzeAgyd/Hw+/fFUQ63ef2lzU2G4H0ICQ4QIESJEiBAhQoQIESJEiBAhQoQIESJEiBAhQtyV+H9uxPe8qSE71wAAAABJRU5ErkJggg==;fontColor=#6176FF;" parent="-BEQtp0c2egYkK-Se_0I-2084" vertex="1">
          <mxGeometry x="32.5" y="100" width="100" height="43" as="geometry" />
        </mxCell>
        <mxCell id="-BEQtp0c2egYkK-Se_0I-2051" value="" style="shape=image;verticalLabelPosition=bottom;labelBackgroundColor=#ffffff;verticalAlign=top;aspect=fixed;imageAspect=0;image=data:image/png,iVBORw0KGgoAAAANSUhEUgAAAdUAAABrCAMAAAAW0Oh0AAAAyVBMVEX///+zAAAejQCwAADSf3378fCuAAC4Jya8PT3YlJLkvr7z1tYAhgDC2cDr0NDotLTuxMTGUVHKc3PObW3y4OC1BgZpr1ner6/BOTnJW1u4GBhXo0rF377nurr02tq0Dw+jt4pjq1XgpqXGYWG4LS2GvnjQ48zFSkr89fUAgwC6OjrIWVnUhoW9KyvamprRfHtImz07kSLd4c/v6uKxwpuky6FCjyb/6++XtH8+nSNQpjY1mRq6ISGNv4OCs27W5tRCmzuDqGbi0sf2X9SZAAAEvUlEQVR4nO2da3+aSBSHxQlWkVAbbbx01dZkI4k2124bu27a7vf/UOsNmHNmoEgGwpr/83JmDszPxxlgLlCpAAAAAAAAAAAAAAAAAAAAAAAAAAAAAAAAAADwuvG7jOFL1wg8H3ssKOcvXaP/O39+OiV8uAhyGtN3lPqIhg7lAtNJ9jrYbyxKPcrzO1uaOzrZT/OKOHWrhMvjIOeGNSBR82jo25qc2chehySrjjXYsMsR7eyneUV8oFKrbmj1SLDfWnCrcgGRl9UarQOspuG07FZpLWA1FbB6iJS+B4bVDKCtHiJlt9qF1Qx8KrnVBqxmAFYPkVL0wEum7irKg9UslMLqtEeZRXmwmoUyPNkkAatZKLKt2iv8PesHq1kwb3XUpGxTvfnn7TSANb1mcz8Vn0U0R2Hi6IRZnY3IYYEW8z3wDQuzV2nOVISF12KpV3vJQq50iQz+1wAS5tsqj7Mr/pFgLc6ayz2x9slGSYTV9ORv1a+c8SOte1I7OlAWq+9hNQHzPbBitUGnSHflz6IDwappcm+r44naUjcB0ZIYWDVN7lYH4xgvIjwQrJom/x44DuEEEbBqmvzvlmKtzoMIWDXNy1m1BkEErJrG/EyczqoQOtVBhN7qcjsUpTnUJh1WEyjCqhi0j06ulORaEKG3ejbrr+ixrDf9HbCaQAE9sKhvRhzaPL0WrMNPmjW/xuh+Boq4rm7jOpmsYs4mC/k/2YjdHLhf51ZbuwhYNU3+bTV8guHDwbCaGwVYfbvLOIHVoiigBw7kwWph5N9Ww5siWC0MWD1EntEDN2C1rDyjrV7DalmB1UPkdg+r7IUesFpanmF1Dqslxb5jVqvhm3lUqzc0thCrbVjdnwsuNcGq/GOv8MkkWV5W+7C6P09urNW5YtUi2yA8ki+6QXq+VqUFpyCGe0Xq3UOQ11Wsir4UylSE44L5WrXkKoCIL3897LZD2B8vlQ7467eg3FCzuiRqKUOeFz725Gu1vu+mulfC46XrLhbfF4u/XaWlVqu3YbmRInW9QabRajabrclnvh4/eqFkvlbDGSBA4OMOlNOo4MDSsFkfpi4Skzpns1Z5kGXNuo5zfbbEuiXCR00LDXH/iQpqbpdikcadcn1etYJFhlhjSFFve2WrP6KCzfRSrWW0xc2sVc3VfQPWA1MSrd7KNyOz1I1Vfn+AWastWE1FUg/sPsklvdRWz6U/g1mrcVvOYZWSeLd0T4qqFzU9oZ81Zq3qtjTDqkpCW6VNdcW7VFprcznGsFUHVtPwGGvV/aoU7uv2iXOp9KU8hq0qT6ywqiO2B3Z/aj5VwF/UoSCsLo8wa7WjPS2sUuJ6YPfnN11xL7kXFjP+5iPTViuepakBrFL0TzZulV9TQya9uPYqrLo6gGfcaqUz1VwHYJXweKlodd27px/xEb43O1dHCYUY9z3NWPuN/EGU9TdRAqttnhFaHdOcmvKVIqcub4HF2JKG4y/f79Ymt6ykLn4d278L8hr9QbglePX7vu/NW/ovBjUdyjAw77EMJzipzzMczVGH7elyvKE3PZk4eOOdBv/h3z+2XNxrL6faoFFruMX77b8AAAAAAAAAAAAAAAAAAAAAAAAAAAAAAAAAAIDD4j+1tHV71mDs6QAAAABJRU5ErkJggg==;" parent="-BEQtp0c2egYkK-Se_0I-2084" vertex="1">
          <mxGeometry x="15.579999999999984" y="263" width="133.84" height="30.53" as="geometry" />
        </mxCell>
        <mxCell id="-BEQtp0c2egYkK-Se_0I-2052" style="edgeStyle=orthogonalEdgeStyle;rounded=0;orthogonalLoop=1;jettySize=auto;html=1;shape=flexArrow;strokeWidth=1;fillColor=#dae8fc;strokeColor=#6c8ebf;endSize=5;startSize=6;" parent="-BEQtp0c2egYkK-Se_0I-2084" source="GWbdKrJWIhSH5sj52bIB-2086" target="-BEQtp0c2egYkK-Se_0I-2051" edge="1">
          <mxGeometry relative="1" as="geometry" />
        </mxCell>
        <mxCell id="-BEQtp0c2egYkK-Se_0I-2053" value="" style="shape=image;verticalLabelPosition=bottom;labelBackgroundColor=#ffffff;verticalAlign=top;aspect=fixed;imageAspect=0;image=data:image/png,iVBORw0KGgoAAAANSUhEUgAAAMgAAADICAMAAACahl6sAAAAkFBMVEX///8WsCtCRUKEhoS3uLcWrSUWrCKfoJ8Wriv29vZVWFX5/fkWqiN2eHb8/vzCw8LY2NhmaGbi4uLD6Mjs7Ozp9+uSk5KrrKvJ683k9eZLvVrZ8dwfrzH1/PaL05Sx4rjNzs2j3KsvtEF/0IqT151ryHdzzH+m365Qv187t0vT79e958Jhxm6I05JCulFwy3yZCodEAAAM9ElEQVR4nO1da5uqIBDeLhCt1LZdTllam93L2v//7443VAQEC6p9Ht8P53RKkRdmhplh8Hx81KhRo0aNGjUMou+69uWyWi+vyxDbw2V1nrj9V3erEqzJbL05nhzUgBAAAKM/AUQIefPdemS7r+6gCix7tbk5GAd9b7AI+GCMvN36/N5k3Nn1hsLh53DIgILZAd5uZb+pnLmjjYclHKi5cfzV5NWdZtBfLD0caoEij2hiIHb2s7eSMXfkI+W5oCcGnw5vMy3uZQ7wPSwSKt72Lai4qxO8azISoEDEnO3LBaw/m+NHaKSzsrJeysPeaaARUzmeX0fD3SKohUZMZfkq+TrPYQVrKwe8vWRSrC0AWnkEk4LWz1/sbf8hWyUA3D1bvEaOPu2gmJwWz6TRP9y3jisAOKPn8bA2ZqYjZoJWz+Lh+gZ5BCs9fhIT92iSRyNcUZ7CxJ0b5hEwgU9gosSjbH1RMRMAG9d4SyZXgTMbZxoEPXQ8L4joZSspwIYXeUuq59j5Xa9W673DGXiA/YvtuvZog2TTAhzbJI/+VcIDIBIk2RvGLwbeiHggti+bFHgyucYfYHlQDrycRKxoJogaZGsvm1r4a87vmmGJSNDycKDiX0QrsHWUSZc50zXxJM+GB+r6/m9+TvCeHuGzLMxH2JCa9H1J+AGcglhPchoPnEKGwT1J0ngNMDcT/h5g6frQ4Dw4Ey6At4Xf+r50QYHFe7TAlppMfCyqp+sR6sxsqRBpYAM+fV+6giBwY0QhNdd4U/zJmkuJIMAMzeNYyeNzVFSDwM6lRGbFn1xHHigjeNHNw/XkATqCjIeUqju7UM8UkpMIeLqXxaWKywv9oiRYiWkCXlHq+juFFkEDrvXysNXS7IxyWreEyK04sgup7YiAGCPxGDZqGSxmSoRE5LaDNKl1Siaq+x7F2E4oWhfV9L1eLVkqpxQRLVxkIUEFZVcUVd0RfGApSwSa6hLwqB4viK2jza/Ua8s1yFmd7sZKJM/hzjPEVMoROPkur8lUwn3uW/tUJdmqL1gkGsvQwKfNYXXYbm4oc3MRQNlWR3AnIvwyUR85lZLG1Bg8hAVfMcFplHTOstdHnF6EoE8UZZTdiZfJd5NrxS0V1k27F3xVx36+fevsp/1DAPzOwlnJeeooMQP20sEVk/ja/BS+d8KYxf7Fw6TTDQjm69kk7w4gcJosDr5TPWkM8E6P63jmiQLgDJO7w5lVBRDQqhDE7I6sJoIPXav7liNZiNu4RV2KChN597YQ0pOu6/PiBlGksDaSTsVXHUQmvFRbQxTyyBJfd0HPmjjjdk3kAklTqncB6cinLLn6KUwzK3tRVaBDSQQ5gsCaCkyJCeGCS/6zqsAS+HeIXhAz2AZmBO4eJ2I7otbxnO/NGdiYA6fHtf0sXsIA2HCU0FXIV1UmwuZnKoNvtGIg6CxpKn17qx5qqAOhx135ddmCjABG/ursWsGi0rfc8+HeQjoZEfg4ka1kRwYBiLy5v9v5NweYqOqIHqIh3lWxpiCBGRbREx5PZ0t3lp4BoCEv/2twnNUBH3cbd+9BhEnmVyciFy3UKC8RkN2s4J1pSED8SokEFheHRxKqTh2AGEe1BfzzADSRx2dEpuxhXfh8t99vdvMq5jcs8/e3q8todlktj44ssaKBSNl+AkAYzLeLSewIuZPFdh50UEHKEHY25+xQTH8y8lFZcgVpcH+3JUQw2p9pb846/ypIPPLWRd+pv9iXCBjSYH4PQiIA73h7lSM5EXzg3Pex8MUCBh7fXBA6jQDza1tt+YaBILywDsJcObupVxkL0TBhQf6vTBbJGIhicOGuiYZ9an4SRax+roobz25WJ9jzmSAN2QfBdrgw1DkobEUB4VaBIIzTksfm+yiA2cCNIZhA5nZBNmnicU2FlqqULZ8I32eQFy8lgD63a66AiI4tEn45EuAanv5eebORn4SZ8I+baamucXnCwi9JoMriQlcK0en4wIPJvoBHjgILNvkgUwByB7gZOsALPhdZujRgcVvO6GJAOL/eEM56Cj1mcRCYPB1JlA/+KCG2cWuVTR1Gm+gMaz4GCEturMX6lpEDuJBOsnaCTb65lp0eG3PlFpzyvXBH2aGxzHfJ13gldYLuJXe6DKLrIlN6W8CjATRkTD+iDRKuBmO0Tk7buovtKXNegbNKBzBTmkyp3MwTCdNJ8+3Mdi3LPW89IHBR2Bqp+yDYvQn0xPE31+tm56FcIALzJQNnkkyi/NdFbp89DK0cL4CoeFvjtm5JESCbBwJeXneI9iK6tmNS2EUpzSUhqGkzNLBb6gdYi6XgxC8omOtKRx70ldGNlImAojgTX7jo0lSpRtFXsmVJSnRzg1eoUk59SCboVqkETG7VJVlRd9SYsCvXIbmRybApV55p2XcjUAoyGrw4Y50MPGbcPoVIMh4crZVn4sidJsK4T9eku+x2tkoBcwi9tYBqU8LukKWLKWLHVa0akFNM/BCEtWcUkd/ibSTOQpyzRjZQSbSyMvkYuIUcDBEmZ545BZjxl9SCSe1nLxbSA14cIjmJZHVWaSnRaXsTLOUizYSN+dQQE+VNFIrj9U+Ikr4XR50q52BSOmX7xSkPzRoSQXqWKHguNer0ESAEjpRNk53oie4xc4hPnkMEVPpxixtUX8Emx0Tp5LKZIz0ffWkJU2Bl10S6+ltmBrFP1gRrdlPIt+g/dJFAbmcQgKdDGPBNZrzcOnCuI3tin1fH4EeFk0naj8EQnBVKXaMCgpvDf69TWLLpqO5sGTC9KS5KbrCe4gHdzgmNtd5XoZRB//mqPPpbpU3ChwEQE6PpZmKkjpSBgWNiDJOlqRogiojpk/kf3AVCP57z/grVEP5+wM1zXiI0QsBEeW/G4/is14YtPJMqL6wpNoBJ+KozM5OC6KyraVhrtaOd1QGcp77QKXC8TkbES0dpbEW4S6z7pWcoWNJf8f6287HqyS8ZgPOalwO6K0+nFwlexSPAZFvteGQZjSAkfLKeU7CvjibvC96MvjBIgcrWUyiwlAA1oP/6l7O6q9ujUSHA19e+zjSBO9t7j3AB+PA2b5Z2LwGX+wJIhD1Ne+ma4I6Wt7B4puLMALx7vXoUYS0u1yO/7ErIA72PWNHou2v1OQF4/srVQ4KZ+jY6ev17pEugUMbciN+HfXzj6fhQJdKAr34XthRKRAC6vp+xKkCBCMD+e0tVBCkRAI6zN7W5FMqJIICPozdXjgSlRCD2/wiNEiIoCPN/z39BqGIIiACIveWLo6dq4BIBEPmXd17GOWCJBMHKfP2u/5uNGDQRENX3Lv6KgueRIxIW9u4Of28uYkREwlOf2DkuZ2/viIhxCf8XLuf0uz5P/uhUJDjvrqvZ5I9ZqBo1atSoUaPGn8BP+7sZ4F+7a/xRrWazbartr89mio6phxCYI9JtNfP4Hpt5DIExIuNIqNqD8HO7FzIxK17GiIR9/5f2fRr+y8hzCEwRaRf0ImQyMPEgAkNEuoGefxe/MKrwhoh8BRPwRX3TbrbaxQfmP391Qp2a/rC/kM+tsMluOxiRz+jf0ccmsezRVeNw4nsUobjdzleutXE3/K4zVCHyL3ga/xc+kcE3sW6xXomIDBOL3ut+DJKPn8P0qkHSxucPuXfYI+32hhmR+EslM/op1G0uEdKD6IklRNrpytQZZoadXPUvayRhMsy12xzS17VUeHSbQonldXEc9q8TjNCgldwoIBI8/icZ5u/s40/663dwYTcUr89oXruRGIYfQw/ju5teF1w2VDI9Q0ZFSolMs8t78QiLiMTTPG6mH8O+TsmvvVhfwvmNvuukX9GtqFuFQTUiOYs2iGVARGScfkU+dhJKua9C2/+ZkEwVYZxobXid+tJcjcgwFeBSuq1Ef+Lek4/tRNpbOa3sxg3+UIraix+Sa0UB40pEQlstvyr8e5oRIVOYI5JJTC96fLtZwFd8XYX1rJqytwuLp5gI+Y5PZFC4vVMk0q5MJBySovnNL1ymiXS0EZkSC5jn1ho8i0g6I9OPIioS+WGUZJAY/HwXeymRMh3pqRLJHpjqCLsqVyTy8V0c5VZm/tKGPuOuDfJW61/0dM5VciLp8I9Tq8Va2qpEQkuUv6FN1D9nOQfku9w60v0kUsFcJSWSCvM0HsVuM0cubHh4B5FCYNVOfaJpOvxRDEnIEe/oXzyKvKukRIj79JVvl8hbK+lAZSJxqBu55d0ol5J4qeEAR2544AASoYl8rSnxtaaCq+REmr3gceOw+7FfFbX7L7QB7bxPVjEuGqeeeYRPogVZTqLVEXq/vKvkOsI8LN9ucnN1IrF8EHRSKeuSEKHVTYnk4xHhVXKr9UPGIjUdWbtExu4hEjwl5tJqU0HMV6gIrS+ybiWXRlHCdCC+SsH8DjvJPbmHRctir53zgo3n2GrUqFGjRo0aNWrUqPEc/AfJQ+eOp5Ca+AAAAABJRU5ErkJggg==;" parent="-BEQtp0c2egYkK-Se_0I-2084" vertex="1">
          <mxGeometry x="47.5" y="380" width="70" height="70" as="geometry" />
        </mxCell>
        <mxCell id="-BEQtp0c2egYkK-Se_0I-2054" style="edgeStyle=orthogonalEdgeStyle;rounded=0;orthogonalLoop=1;jettySize=auto;html=1;shape=flexArrow;strokeWidth=1;fillColor=#dae8fc;strokeColor=#6c8ebf;endSize=5;startSize=6;" parent="-BEQtp0c2egYkK-Se_0I-2084" source="-BEQtp0c2egYkK-Se_0I-2051" target="-BEQtp0c2egYkK-Se_0I-2053" edge="1">
          <mxGeometry relative="1" as="geometry" />
        </mxCell>
        <mxCell id="-BEQtp0c2egYkK-Se_0I-2085" value="" style="group" parent="1" vertex="1" connectable="0">
          <mxGeometry x="40" y="83" width="281.0011764705883" height="670" as="geometry" />
        </mxCell>
        <mxCell id="2019" value="" style="rounded=1;whiteSpace=wrap;html=1;strokeColor=none;strokeWidth=2;fillColor=#FFFFFF;fontFamily=Verdana;fontSize=12;fontColor=#00BEF2;shadow=1;gradientDirection=radial;" parent="-BEQtp0c2egYkK-Se_0I-2085" vertex="1">
          <mxGeometry width="165" height="670" as="geometry" />
        </mxCell>
        <mxCell id="2025" value="CI/CD" style="whiteSpace=wrap;html=1;strokeColor=#CCFFFF;strokeWidth=3;fillColor=#3399FF;fontFamily=Helvetica;fontSize=18;fontColor=#ffffff;fontStyle=1;rounded=1;perimeterSpacing=10;shadow=1;" parent="-BEQtp0c2egYkK-Se_0I-2085" vertex="1">
          <mxGeometry width="165" height="60" as="geometry" />
        </mxCell>
        <mxCell id="-BEQtp0c2egYkK-Se_0I-2099" value="" style="shape=image;verticalLabelPosition=bottom;labelBackgroundColor=#ffffff;verticalAlign=top;aspect=fixed;imageAspect=0;image=data:image/png,iVBORw0KGgoAAAANSUhEUgAAAQYAAADACAMAAADRLT0TAAABaFBMVEX///8AAADv1rfTODQzUGJpaWkzMzPw1bdta24gICD7+/s+Pj7d3d2VlZVycnIVFRWnp6eBgYEnJyfz8/NGRkbn5+dQUFBjY2MjHyAJAADt7e0zUWHCwsLa2trKysoTDQ+BsMSenp6vr68AAAuNjY325M7/7NPbOjW2trYbGhz43r1Kc4x2dnbV0dDHx8dXV1dmW1ANHSEAABEkHBwODg7r2sYTDxfv17Q7NzjNuJ7zPjocHiLfx620oox6KyuEd2m0MzBsKSeKLC4sJiFGbIGaLy8AEhUuNz82V22EprgmKi4cFx6+sJ+akIJ8dGpLRD5vY1ZbUETSxrSpm5CqmIOWh3THtZvIspnjy6xVSkRUJiVBIiL8QD0AHx9IJCVCODChMCswISNbJSbFNjITGBNwKig0R1IhEhNPPDlmR0KNbGCti3fCn42oNDQYJCcZMz1jgIw6Ky1tk6ZTXGZvangeAAAaEQZ2iZfVv5RdAAAYjklEQVR4nO1di1vayN5mQMCEYCAQSLilXCQkC0IaRRQQb5Uu2mpd3XqptYrF853zrbvdPd/uv//N5E7Attp22Vjfp/WBkMvMm999ZhKX6xGPeMQjHvGIRzzCCYgQmVQuG8qVMkRk0m2ZECKZQjWwDQALAYDcqBYyiUm36e8GnpnxAY7EBHI+D0Ceq28LJMdS5cqkG/Z3IpKNspzAMNuAqXV2IF683JVBXWA4Nk5MunF/FxJBCnAywwj53Z2Foo6Fnc4ux0EiCvikG/h3AA/5AKBmAkL+Q3u2WJzVAZmY3d8j5wW2+h1Yy1QUcNVQOhXgXsyaHIhuBWJxv7O9zQUeumLQ0wBUU3RlBuzuF60EQPj9br9bFPd366SPnnRDvylCFIjm6ErBB16oUuC2AxLh33tKNh6wPESmARsmiGC8ye0oRgF2enGECLd/ca9ONh5sCIFXAZel58Le6PxOcZwkaOIA/72qc9WH6i+mAZWiS97pqrx/OwsqFa0NgQ1Pur3fBiXAlOiUd3qaUWQBGsTbUdznBC416RZ/C+ABEKIz8Xi819HMgukgbEAhxE+c0HiIapEBjWCc4SAWioZGoMhBHLGSxZ1ao8YwbGjSbf76oGMCwwKuMR1lF1QWoBAUZ1/s+l627MKwA2CyBWPt6qQb/dWRgtkCGwhWaDoIoGlQVaK4w+TzeVAT3UN6Ie7tHRzUUJ710NJNmpMFoUAQpWA5Dl4UVYtQ3OGeXuwddg5Fmzi0RIj2OckVJt3ur4wZmFWX6NxM3OtFNChWUdzP5zuLsMNDooC+LPohxKMGF5t0u78uCJIRSkQhPg0RBz+JiIbF2RroiP5F94ij0EJLscVxDyuULAEuTGcVFqarkAalqwv1ml0bhshYFGvgYYUOYU6Yy6ksTMfAkqjc8p+ftj5BQxtkJ93yr4oY16iUVRamo3lFDaBetD9Cgtt9tOhf4h5UQI0HuOqcJgzTjV3dJuqy4HcvLWmf/Iat8Hfgx434pJv+NZGgOG9Ip6HXEe1Gsbi/p1Py+kiTlWL1teg+DzygclykypHeoFejQTiweUj/7OyC70gTkD0tiJgtvqiJ4i71cGigo/PYtbegsTBdb9sMI6rGvuwoG/3i4blfEYfZ2f38z+Lx/IMpQtENrtkk44Y0bL+2KQWqxS08baOt/sUl0FaiCphxHR+LtfnAAylKJhqktHYiVLOxQCCG7IPwelgaYLwI0QE/o82L7t0NaCfdR69ft49BuzPPPYxiHF7lpMs37yXKx3F1EotOTzfbNtuw9Lp15D94+kqRAvEAhpbuxT2YceWZVqeOPYhiHO5lpZPl5bdNhtuo1T7khcCMrzMsDeIukH2+en5PVOsv5/k2zKvk+nmnJe7VT5vsA3CaQdC8WH7z7EzmXi4Uiwsv80I1tmtTivZG/mk+/6qllqHE14CBGeZRyy8uuve2Vk+bIDjpXnwpMhzGeKAwYOCn4uw+JKJab8Q5W9QgHi2120vm107+HDKiZJm1LU8fY7jMpPvxZYj4BGn1zTKPkbXiQgPIneLPHBV4+rM9lYDZtkU63Mf5V8oIFqSB6/PvJMHnbDNZ5qSV5eXl/ll+v9h5uZEHHbevzoG2PYr0W6uyfrH1IQ8jTbSxduHx8O8lbmbSPfkSpNibt5CF5dUzamG21cofvAStznHtYLTCoBYY9M3i0jZAwaRfPH7rgYDmwckJd0A460MW+FWpsTArHpyLixsHKEZYHD9C4Veg8HCQf6oE1b4TRMPqzVXUuV4zyzaRSng8/aawPyse7oniwQES9nHjlqowzGrZpdiZf3oEE0/pPQ9p4Nck1rGFhwSFMTyUBUjDBdgvim2YRfphBrU4ngTUezSWparFawCDSbG9tY5o8PQZgXGqlQyx0rM3SBg8/OXWy6K71RE/Ol7nXvTrY1l+GEvWRPg3/06RBn7dseIQ8cHASREGD/9MIhfc7pb/4zSIB0tKeuUWW4cMB0NusbPV96i4EBrOTLlzrLSusuDh+wx4IWom8FaVcIs1ZBZFsdVhwDFiRNyVNRb4lTOHjuRFBYxXVAL14n2TROn14qJ4dLtEiJ3t9tLrgxoAu200enHU2rrkNR76DBmddI/ugzSMnN4sa73g+xtNQelaZ2PhVmnwL+XR2KWv04apt799DLPOdZ0G5CzSk+7TPRCcl/q6MMBevDsT6rXDw2NwPnZ2R2sJxRPi6zZKLuAHd/sYHIjHW6vGCValeQeO5OEB4XRZFwbFSmLNbW6epPaLIxwgYhq7nQNUdkAFqKODzjmMu8XW9oXHxIXgwPJshpPW3yxbesGvnkgSk4eJ5ggLs/D+H+2Cp3WOrG83haXDfH0b1JC7XLPw+F5inTe+nWVhHM17rDzwq+tY/kVx1p5ezs4e1V7DAHOXzNfrwnZ+5xDkN6Bjce9uvbPQsOrE0CHONflhGmBPPBfzL4vapCd/S/cYkJfOLrIHS+3DV7u7G+323kFLdIvtvFUnoK/gHFeGwmXpcnnZYwN/ctXQZz2JHZ0HVICsQR1wo9Ks+htKPKCBXOGHDm46ruyQQYE0P0LD+lVen+kiHhxrlVn092hj43BJIQBBLc0+vegPHyw5rgoFQ8hVu04gwcZUrVC6v3FoVKj94ut8Xmgc1zqdw06ng7YcbUjrw7blnQRKk+7XHQGjBs+ITihB0IY+L1TcAcbw1SLk4TyPAOMnGDCgQbz5UzuHZ46bAzTDYaOmQUkutnY0lwkTJ25JNMyD393u7NVe7XXaaNKD2AbSik2a+nLdO+l+3Q2R2NXbMTqBUqStY2NSpFjbPrLMgVOsgqgUZ8XWB6x5aT/BW8FhaUXEd3U5noZ3WH7HjKDOz1v2gTzFfLqPSZmR3nuGjcNl0+esUlyCkt6P0QmoFG+b27vmSpKjBjkyoInKDbvzck+WpTWPnQZnhdM0Ja2M0sB7YGLBaAG1Wno9OgeHolmUQmMTMJiqc/LghykZk0761sPXJMZZw9sEI63baeD5X95KjCzLjLBfnNU73toFr5a0wRo0QiMeHZznGcjCDz8krxnptD+UVTiMhsooDXz/8qwpM4PNwZ+C/NNCUdTMov+Qyb9q+9W4yf1zh3kqYAzTU3iQZYxZNXjgV5qcsyZ9pO008J71CwmRAHs3kIX8Rmenhbp+cHy+28C26xu1w4ODTu0c5lYMxjSvpGuVB6YpG+kVvyIJzqIB2YahfGD1VMJkhQSIrsxQDQA2zl/V6ltbEtbEGJhYosJTHnz4F8Ocna68b8pJuPdzRsZudHng1wSHKQXyFBal9ryXmnJXI+GHHzYpoZEgcsGyl5TW+88uGQny8D//ru39+z+t//2XdLG6/ObN+lUX8bDZk5tvDU8hUM7KrSI+yayY8O+gPshTOgnPp5LJLheYg7vhPZiGvlmGthOajX8vQS35DwnTSriF70u95NRzRBmG9Q0aHOYwI1HyRPcPqydnmNzTRGHzeXIK0pAc9EA0WyltrcMuIyb6J9JW/sJH5U/7Wh33qpdMTkGBmJIZ3Ws6LorEvZxeMoH6oPo/hYQp1DeViCaL+c6eqYYUUvHL5cX22trNyRtthOe0qey6mSR1pehfkE6ruxTmm33N12MyM6WTMIU4UIEkQpZ+0f0JlIjLyzfL69LJihIq8Jc36q7dK93K9JuOm0EdYpvvlLZfYIxiGxUOhgGJ0KUBWtEVRjpZ5t+d/aIWcvk1hYZksif9wmve5ozNTbpfd0SKVYsm/CnWU+0iUodhFuD/G50GaEM8K7LHs3amhY2aNCSTmK5daDh3btL9uiMi3JXiKmDkJz9HgZCdBKWLyV8tmQf/i3RxAbbWV/uQE56/6Cr7DATd5cDMinJW2OBCI5gXWt8U+/h8DA2okyfmuJbnRMBiofLWlvz2cm1lRRoo0tCVnume91Rw3sqrICcp0V//gmFQGDQ1joapJKaXFPjVi5tShSDoVJWSe91f67JCw1RT1t3l6o3janBo2aVmHC5vrpO303Cj3Wv+2VWdSRFpPEHThYsfnzz5jcEUvbk60Xlal4DTTAMKp4W3vKYVXWQcxrEAZf6UR+axv7YV+IONEpE07GrhwxOI36+RcRiY5elTR86ODHNaTgRd5uYtNCSnBmdwp9U1jIs/edIA4URihtBpaKJDuoIeSa9KXHnSfboHUnk1yeTf3yAj+fwWceidrp1K0sVfyv1nlLHacBTR4FM8BfZW14kV57lLBLyh+grPahNpxeYwDU09ohxgV00GGQOIP0AYd+Gu8h/w82/byMdadOLiypmPMQiyZ6r9OxWoTWgjrRjIRlQ5GHT//Eth4cmP1xhRCdDlTfiZQY4ChpDaPA/+meRAP4FAN7FTFA7AHsjQONhpMHnBok80/BcUMgHa+xsUjB5iYUo4NQ2kw0ouBsKckg7wqzeo2JAcpkHnJZns/vlfnYYfLyjChe/+9eT3bdWP6DrBv5Mcl1bpIISmcjP5t1hXySosNDCmePRkOfa7xsMfIItHNv560u0qpoMyKi6nAuusMqQFUByQs4BaQdlomKIMGpIDRiavNSJ+/L8Gnbh+somp5lONnXg0SdaxwgBDKEaQYcIIXb5ss5HJHqJB05Nkl5H/vK4qdjLK5lIffr8eqNuhjYWZ57uVEwwTnDgbUEOIlS6VmePk1MdogFHStsz92fjtxyd/sdXwH1AllAoVc+XxvDvBpKs8erSk06Z4mMBjdWTk+BNhMGwjFRqMpDOJDCUjY9cXf/z1gfE1MJWhLnby7FTCBHa7HCpzTl6PmeaYmz7Pr1x19VwbxUSopmR6ClUeoI3oYYx8zTCYDHcYwHCCYZimwAGqgDxlimSdGTcoyLEweOCfnfXMkkOyRw0GTaUSgzBQ0IXoMRqUD7IM/7BMeU6LHbPAmVGkiun55iW/egbjSDWrQCGy3GTk55uo6z3YYxk9EItjWZYjZYUFGUN/uHmGAUFFEeg0JIAWnLzeKhIlpff9Jkwyn+taMEB9xa6VrrMcFahOz5TL4XB4ptpgWBKKAUXJZLUQZji0dIAONwoKGVVHr86lKUFaOSWfa64iOZD/lCHmyUA8HJojEhFT1PFIIhPmktC5ymzQ5SqDEA6dzbQWRIeAw4buhlFBUi4ntRwzuamgGUyM03ScCLGogtub96JnyBVwOmsEjxXWyVrhcs1xDBq30qRh6vkmTLR+Hb/sGk+XAKKhSzbgFyoegUa2GoiWU8g4+BwcSSJkBEHuGvETGpN7/uv4ShKezgAYaT3vyhzseLwB9YGgaTqCRnDxKuewIUw7KhSiwVqj/3X8QxnwdOV6APfryoBGPtKaTiXCrIPXpCoIc73h4nR3/BB9JF2hEA0DGcDYOQf/4DlvPF4oQVLoIHDo4jsDQYUGCwbyWKsPaWh0VRpy6AlqJdj7BE0T6YQrQoSAw5UCuj07DdzYjDGSTkcVGjDkMVMgCw1DIhGBwGmiABy9bh+ixGLDtiE5/nG5kTQRQ+llkuHKEToHgkSaSGsgqsCZKzFNlFjGRkN9bJfwNBFXsmxMiKWJFFuuzKUgSnOVNJHjnFqNNJBi5c2hEn2yOTYGwCuEt4dcKiU3KqkyyTAwxQRMtFCh53zA2WGDC0WAcnegzvfRCw5jzR2epss3SmUeph0A+BpRHxfLZdKZUpl0vjDA9BAGkj1l6EGjocuNDabTdLiJstCeLDRCFZhwpBkAsy202KTh3PKTgTDgYOrYGxiR5ACMqzRD21AQYP7dxBh9+Dpdyoa93nJ2zuGhk4q5OKMSoUoEpGHcuilIQ5AV/pyHKhF+EN0eBVFgWKgaVFdNK9ixyRUBU8yAtyxwTpvsdQcksj5WQCLRHQyS5Nh1UwSRIys0wTzMp/DriIR8AKXdsszIY7MKgkhxKSIdYx80DVD7SzM+juXQe5vGhdNEGtFAlB0fMH4akUyuUCiMf90Anc6wkIag80Olz0Rg7MtI6HQFlAiixAX+9gZNBgU2MMYlJtIVtkSkKyTr8NLC5yLFsmNKDhFIQwgmlT4HTv67F3AGjIkNIA0kpIEIOG5V+n0RB2PKsng6zYTodM733dCQY8c8Shsn0o1ojOJI4Ph08jNBM2BMzkgTMY5kOd/3IgwuVxWMGaqn6Wmukc18J34CITdaacYTaToMnDxke3ckOC43ZAHwBEEQdJZ1eh3+jojD5IKaDs2l6QjuwiNEJVPKlgPMw3y52e3IAU4QOPiHoRrRgI+iKIHlBPI7SKuGEAmVA2imhwUsALHvx0kYwOlSqBCeiVfjce/0TDiYm6O/L40YAg4x6TY84hGPeMQjHvGIRzziEY9wIvAEna5kUrlsMPyxp0gnQuHwwx3djQELqNv3yyo7zDvvqeOfh6iVBt+tu2X1XSa5JBVPE6P4OqeOZHKBT9MQMXaZ5Mvm02AMvl4FvfpJGlLf4rJ3BvFtaUh/koaSedlJjmUlKsEhJQ6XiK94V/BP0lAxrkxOukYVMln42kPu2CdNJKVfevIrUmOfvGn3BP5pGnS1nKSF1DCj0/DVp+N8mgYXHYe/C8FJq4RrwjRA+0T8Myr3E6bhn4JHGhQ80qDgYzRE0rlgoRAMzY1dTodHElqYkZjLBoM5eyD+uTSY57Fu0i4ZqYSCwVBlnP2gM/CnbK6C9qQLX/gW5ttpSHnNmCIa0huSgKlz2VuNBXyC1sOS7nOp4SlwwzQkojET0ZwrDc8zE9fOQ6pH5LKFsjcei/rQoah3FaMJBRtTiaCZtAQK6QIA34aGihpgRr3a5QRtQDoDLIA5NG1NqofmswzTQFuPA0FX0PpVpQEf2oVGi1YslxqKt/WorxEwQrBvQoPWSlQSyek3RO1OfN5Kgy0/s04UtilFOmQkW95SxDVnpU+jIeyzbEtEhiL9Id3SGh2KoDzZ++1oKKvbStYvRshrpkQ+lCTO+0izsZZJcKO2Qek5FtLkGzcDeVLfI02ZZ0IffeZ3S8QdtrbO5ZpTvn1Z+DGWhsLQJiMF0vuY1TdAwYjNRfCISYwlLh6hIYHkyBoy6nJm0jAkXUIugePphrGTbh709hjmQtnwZc/CGEeDXgjQrK+RHehzuCLm7dcKjXPGBrM1dhpwaGWiw3PD9Htt0mCWKfQly2ZxRi9a6k02rSa6/Jfl6mNowHUV1e++oaSEbQdzOpOxxdQKGw1I1e2ZpH5iCw2GWTQWKxX0LbpPJEcuhfT2yx4nNoYGQ1Z1go07pN17gwbMOMZoqznDaZiGSACMPrzkYzQYd9coUun2V/9OmT2HfujL6rpjaDA88sg+2h0yaDCLztkR+RimIeEbd78+iwajSqa7Y2DAa8RV2ZkvK6OO0mAW50aaphmHMTQYVn88DTQ19JOO+9FgcUyAUp4P8+UYpcH0Y7FoIODzUZQRKWiv4bozDVpPRsThfjToDtxo5ldgYpSGArgV1P1oSM/bLvFlNJg1TKNd95pziVtymVEajC0AJkzDsJvIz6IhYMbfd/EUt9MwIg7otzsXkxMzGJgP2J2wSYOZUd12hrvRYAm+7eb8njTgVTCCu9YJaM3CBG+jweT669AAldf4ZHvH3z1pGE66NNxxhafhDjO30GDahtvi0zvSkDKvaVuHdW8aXOlRgbhTNG0G7Sp9hgoYL4kwPcVtEcmdPYUlUxhagHR/GqBUh4bGzcG4BX+3I2scpmZBBquGUJltvm1mwh1pwF2W6gJmtWX3oiFmRKORUtlieO6kFabIqyGhIa+GzzESHmB/i4jeg7uHT5ahfutDnu5Jg6VdkdDYE9+BBkWIIgadkTG7DMc7EX1g5R40WMaNLZnFvWioDicntN6DO0mDkTepgfFI3uKy1suGVkfhMV1k7kGDK2uclDQJvxcNceiDrZqln/lOtkE/KZbQz2m7qsuqyRZyEAtaUeU+NFi8hSm996JhBgxby5T9gM+Cal+1CqdRLhmm0vRGVT1xS5Gm18dH66DGzTYK5UaBVYvALd7CMENGlcLsguHADZdi0KC5dCWusTw6RZPvO77zRGkOqcpCRdcrW5RrrYbGCrlSroDupU9vrDlNxfAlhlQJ+k5mYU6j2BLypOznMWJh2kgfjY5mbYep54kZzGltvWs0rbAXjLhwwrCFo57RMkZhNFW9q6mQ9bdoFhKaCcUtm7yhBNwpPrQTsrW4xbkFgqnM0HlAGYpIOhe2lr0LMG4hctYEIoZOpLdafUpzQhWfe7whLKUwThm8x8ZVLFLWYjmEsbqaHN6OJDxq25Ry2Tao5iBn3SIE7PtERlKmmdF0t6BIR1bV2oDXq126fJ9pOpGghfSZ2x5GljJTTVA1M9mydwhxeMsKtk3pkZ1Uwxm2bArbDvLORFyh+MhRJdumHKIBWuZ0wXI7CveuPEH5Q20JffyBbEQqBNPr3D9shblmqOlUNhwuZFOOfc/HIx7xiEc84p+B/wcdg5+GEXJF9QAAAABJRU5ErkJggg==;" parent="-BEQtp0c2egYkK-Se_0I-2085" vertex="1">
          <mxGeometry x="25.86" y="273" width="113.27" height="83" as="geometry" />
        </mxCell>
        <mxCell id="-BEQtp0c2egYkK-Se_0I-2086" style="edgeStyle=orthogonalEdgeStyle;shape=flexArrow;rounded=0;orthogonalLoop=1;jettySize=auto;html=1;entryX=0;entryY=0.5;entryDx=0;entryDy=0;fontSize=16;fontColor=#6666FF;startSize=6;endSize=5;strokeColor=#99CCFF;strokeWidth=1;fillColor=#DAE8FC;" parent="1" target="GWbdKrJWIhSH5sj52bIB-2086" edge="1">
          <mxGeometry relative="1" as="geometry">
            <mxPoint x="150" y="398.0000000000002" as="sourcePoint" />
            <Array as="points">
              <mxPoint x="232" y="398" />
              <mxPoint x="232" y="204" />
            </Array>
          </mxGeometry>
        </mxCell>
        <mxCell id="-BEQtp0c2egYkK-Se_0I-2087" style="edgeStyle=orthogonalEdgeStyle;shape=flexArrow;rounded=0;orthogonalLoop=1;jettySize=auto;html=1;entryX=0;entryY=0.5;entryDx=0;entryDy=0;fontSize=16;fontColor=#6666FF;startSize=6;endSize=5;strokeColor=#99CCFF;strokeWidth=1;fillColor=#DAE8FC;" parent="1" source="-BEQtp0c2egYkK-Se_0I-2053" target="-BEQtp0c2egYkK-Se_0I-2073" edge="1">
          <mxGeometry relative="1" as="geometry">
            <Array as="points">
              <mxPoint x="454" y="498" />
              <mxPoint x="454" y="178" />
            </Array>
          </mxGeometry>
        </mxCell>
        <mxCell id="-BEQtp0c2egYkK-Se_0I-2088" style="edgeStyle=orthogonalEdgeStyle;shape=flexArrow;rounded=0;orthogonalLoop=1;jettySize=auto;html=1;entryX=0;entryY=0.5;entryDx=0;entryDy=0;fontSize=16;fontColor=#6666FF;startSize=6;endSize=5;strokeColor=#99CCFF;strokeWidth=1;fillColor=#DAE8FC;" parent="1" source="-BEQtp0c2egYkK-Se_0I-2073" target="2022" edge="1">
          <mxGeometry relative="1" as="geometry" />
        </mxCell>
        <mxCell id="2022" value="" style="rounded=1;whiteSpace=wrap;html=1;dashed=1;strokeColor=none;strokeWidth=2;fillColor=#FFFFFF;fontFamily=Verdana;fontSize=12;fontColor=#00BEF2;shadow=1;" parent="1" vertex="1">
          <mxGeometry x="725" y="83" width="165" height="670" as="geometry" />
        </mxCell>
        <mxCell id="2028" value="Service API" style="whiteSpace=wrap;html=1;strokeColor=#CCFFFF;strokeWidth=2;fillColor=#3399FF;fontFamily=Helvetica;fontSize=18;fontColor=#FFFFFF;fontStyle=1;rounded=1;shadow=1;" parent="1" vertex="1">
          <mxGeometry x="725" y="83" width="165" height="60" as="geometry" />
        </mxCell>
        <mxCell id="-BEQtp0c2egYkK-Se_0I-2078" value="GALEN LAYER" style="shape=ext;double=1;rounded=1;whiteSpace=wrap;html=1;shadow=1;glass=0;sketch=0;strokeWidth=1;fontSize=16;fontStyle=1;fillColor=#66B2FF;strokeColor=#CCFFFF;fontColor=#ffffff;" parent="1" vertex="1">
          <mxGeometry x="730" y="563" width="155" height="47" as="geometry" />
        </mxCell>
        <mxCell id="-BEQtp0c2egYkK-Se_0I-2079" value="KNIME LAYER" style="shape=ext;double=1;rounded=1;whiteSpace=wrap;html=1;shadow=1;glass=0;sketch=0;strokeWidth=1;fontSize=16;fontStyle=1;fillColor=#66B2FF;strokeColor=#CCFFFF;fontColor=#ffffff;" parent="1" vertex="1">
          <mxGeometry x="730" y="674" width="155" height="47" as="geometry" />
        </mxCell>
        <mxCell id="-BEQtp0c2egYkK-Se_0I-2089" value="" style="shape=image;verticalLabelPosition=bottom;labelBackgroundColor=#ffffff;verticalAlign=top;aspect=fixed;imageAspect=0;image=data:image/png,iVBORw0KGgoAAAANSUhEUgAAAWwAAACKCAMAAAC5K4CgAAAAh1BMVEX///8AtAAAsgAAsADk9+Rmy2bD68Pg9uHR8NFyz3L7//uu5a79//3y/PKO2o6r46uh3qFCw0KF14bL78u+6r5u0G6a3popuykAtwCS25K66bpXyVfu++7a9Npcylyz57MlvCU7wTt603omvCZJxUk9wj1ZylpOxk7P8c+f35+D14N503no+OmwP5tvAAALtUlEQVR4nO2d6YKivBKGJRFQWlRUZFE2xXEZ7//6TsKWhUVcRj9P1/tjpsEIyZNQSaqK7sEABAKBQCAQCAQCgUAgEAgEAoFAIBAIBAKBQCAQCAQCgUAg0PfItNWXaGx8uiVfoCF6iXD46YZ8g4bKSxSbn27IN+g1sNHy0+34Cr0ENvY+3Yzv0Ctgo+Pk0834Dr1kZA8/3Yov0QtgY//TjfgWPQ8b7T7dhq/R07CRBduZvnp+ZOufbsL36FnYeMZfTYe9TZeehI1t/mIjtPpUO75Cz8FGDj+Uhy7WPtaQb9CTI/vEXWrrIASwu/QUbLzmrmRYSAHYnXoGNhL8qipWAHa3nhrZV+5CY6z8O9iXeO+O/s2l36knYAtLjylS/iHsMbFQvws2Eg/xgrvMPP8QYHfqDti7hMeNUs6v6hefdMMeap6aWtYxHHvRUr9nl/9y2PrqE33XGzaeDvSYo+1y2/RR1QMdsFd/XBqtJIUyKftw1l5Y0qthay5GHwh49IWNNmQgj1zGPmLX0CsL0w57G6LcqufAs0s4vWv5atgprcL7vfA9YaN4S0svK9Z/2SWubMC3wh5lZZASH2073BycjHrSu5Yvhj1xaBPeb0j6juxiq1gYZ5SwbbppMePSBjtwqflQFkHxNWOrrxbHtHc07dUj28YIfyAhoB9sNC/Ln3F2grXcCDlD3gLboFMrGl+l0/1b+2rY5iIcBy+8Xk/1go027AtTQhuf2bGN+YLNsD3M99cD+lVLv5hr6QVjlR0teNYtsI1YWpXfrV8FG8XcQ6fumT2YizudZtgr2iFPWchfBVtBLqNtMG4raVfZDHtBUD01sH8ZbDK2G2KNy1qpRtgqEpblD+iXwVbQvkY7cGuFGmGT9Ur/3JLJpGFB2Aq7sbQo8zocbvvevZfMayAFW43tcHi97X/o7xtBjrR0u8aoVuY52Ft/dzwcDsedJlW8EbY+U63kYG086RPT86YFi0ngbWLFdRVrLtAZTr0pq+qSHNVG0omcDLijadECfZ3GtKmb6q6T0y6hZxLvVp/e4/UTaZuHGusW2DuCqocn4rpwcZnurcyEEdsAexSy5PCUj84NdIRxhklf70vfANnD8Im2GtnUXKojjxzVItX0JHPenDE+0v9PoVJdcZpjmDm4POPeMJb3+LORxXfdps66BfaMrEas7moQ+QpdjZOLuvQfHPL3qsE2FqQQIq106VeQ0JekSVgbTDRVyb1eGOeuAm5BpWF+yl5jpZ4WQE5ysMmqK5kMln+qDlby3F1jHme1zu+h1PtM0F3BA2Sxh1HYzHTDpve4aUfWlLDjaSM9WF7I7p6/Vw22ERI+6DhbBnqwoltYfhlPYf+s0qwT4nA696MFNXiI6+9HYMeBSrtuP5772izfNuvLhIJ3dmc/8hwsZxs0gniE9qKJddsOMnsIurfHP+R67rw01cMjMfPsOa/BpqyTyi5o4p2zJlEI8e5UVHebdQgzNo/Azp449VRU0ac3icltXLs4ZVzQrTFVh434R6X24TGv/rmRdRvsgH6kdNUjqwaH0zgIeCXYERYH/kkYtzlsZRNxs6xJJjXEeu8h2EixuQHjZTFXd8c5askIQdzmuqWVPOm97c18beWfd5aCG6bADW1C1NQR7bAHs8xqhqfmTwc5TWF2WSIejgjbdMigEiZrsm1i+UFZk1TpxRPCBh2ro0dgo1SYNa4ZDOFx1UgrO93GAmzymGjcgBnO0/rwprRrm5lbsAdRNlkp6bzZY6+Lzi6qhEx+1Rwpwp4TOGKUh36/SoQjTaoPsBPmQTwEW2obHcfi6NkqN97k4mEjqzb0VlaNNlZXbaw7IjVB1m9kdZSuR/XVPzF38jtQtHkVAQG2QQb2XrpGSiawyuDz5EuZiLc0D8GWitjkaRLrTCvmdG1tONjYbihonOvbxBYb0gl7MIkO2RfJP4knTZZZLaXyAe9QEWCPUD0Bn6IpC3wMNjVvTteOlsFus+2nVrR3waZNVF1cBCI3Qs1PDfhMGsAvDwTYFIP8CC4598vnYO97j+x9y2bzrm3PjbyRa2TH+fjG/HRzJvWuxRZSUqXyZwH2QakHa69cROOzI7sXbPxTngqi89wfVYb+2G417oZNtNVsN9/RsaYsmlwfKmeGedhkyNenIZPsJMsszy+A7Rb1v26ylbYS2yujuOlLYdNKzfNYexVco1uO2izeBpuuuWqbf+OrYJfVmxxKuORJX2bGUMSJ3NiJ3eYtT+/0M/OS0S75JeRgMRXlkZONsMkyT9l7UunFV5mR8t4BHytHi8ARoKLE04amaV6X6/qa8A7YZHvOeyuyNA5ZSgfsptLfNLI9rikMnngU++xSk1VSNzB3JFZS50q5tk6yB6muxglSR02wiUo0XwC7vPdazlZlJMdSeOJvz+BBoyYxuykd2bOfmmbV1eSRnfoNpcsN/BfAHpdnTuM9anCKKGha+/JCLnZPyvCOfPmQ/0hMktsZVJJgo85fJfPfh83sI/nS8hy6MnBu18E2SaE8fd4BO8JV1cjCQ+kMKfGwt27VSa1N+q/DloIM5uic8galemtavxziOCzcpdv4cdgjXK2XPdnnJ4uHTe2P29U1XwBbSWrFdI+tRUrPw1nJHUphjmmOH4atMdhRw3ZdkLCDpPHjrryGb4CN/tY/NdduEcwsrORPCbdIQTPdh2HT3VLhtqGV2Hd5cATYPm6sK9+k/zxswq/BF6tbfCRzy2XDL8tbPgibj2uETc4RTgJsWuUuO/Ia2Od/C5uso6M6bjN/kyb/4Aez/IF8cPk9EisbRcMalaPOx91udzF48Lfb6twN+4zkYAQZVjSN61/CptHhaSCXzgKIRUQpOm5KHfO1YvDgyB7GrAsH2eKPLT7rEmFnNWqPaN4Nm9qlVCg99Kj35h/DpnvGw2IlOjCpT65W+eoGt232sCEUttqLjaEuGGRLY5sdSgHfLLQvjUWW7nk37GxPynnIT2OaLfQG2EoWSzmMI2YUmyIjTPubsC8osdfakKHbRpnbVvj1GTTHHsXn8q6TrTZNGA4JNo29k6etSlIzhtHYrVjcDZsGipR9Ds4I1lbm9dy9B3bGGylqGbsidemAndyETZ8MhNx9Gtq7y3Q6PuaBNRwK9cpGK1LChedNd6pFs4wYMTlvZGtleUiOPfW8xThMXFK6mmDvhp0lZiBlc7mMQyfPODlvzfhdsHODUprFI6oqP5HVBzbm3sor81GwO5fWepGLuUKZi7f6rJ5+dikCmqx0lYF2P+zJprp11oczM4tx8bDrC5anwmJkdpQ26OUXCew/+U+z2JElfqUJ9jbabWKFcab/J1597bH19tyv0o3DNUsNsUl/SWHHQHW5dCLHjgSbXYunmhhhPpUBCe+dGGN2KTW3ThNHTKxEcrKTSk5JsGNS7Z6bmnByFkMC5WKMWNiC++lG2KZ1NWIGq/N0HKaHJHbS8fnUXCVz5dmbY6juvJ+R0Bm6tlzWeucaLdTjJrQva19YQk10PZBfTBsYvu8zNKa21MRpe7RWj1Y4XvvVbU5Ljc1bV40/yhSQU2KdJktN6/yltAy2Syq43HPuJ1ysxagpKj3PaXdA8vbSr0f2+v+vJEeUMUuqh31TDBe6lC5nyIA5p5DSNxkeVKjyZ5eJdcZooVqOk9rVfOBlTIunbhnnlgShg2YmMm2A3akStuDzMwyDPexmtter5vftmlgVN9mtJg35OwC7UyXsuDV9unA1cd6DbfWuzvSJ4MEvFJsgW5wNLBO7oYDxRPDgF4rP9Wt409G4sMUeOsufmhcwI/eI39Qof+XsUl/Y5+A/wufmvBaIB9idEpPhUeqNtoZBp0jzql0cOeirhP6Vzp2GcV2N46fyRn6jaq95IDexjmlq7d3GfAbsJukxtZzGTwF2t170d2oAdh8B7DcKYL9RAPuNAthvFMB+owD2GzXk3lV/XvA3D7o11F8p+ANBIBAIBAKBQCAQCAQCgUAgEAgEAoFAIBAIBAKBQCAQCAQCPa3/AXAMvzKVkYHyAAAAAElFTkSuQmCC;" parent="1" vertex="1">
          <mxGeometry x="725.99" y="194" width="108.46" height="41.12" as="geometry" />
        </mxCell>
        <mxCell id="-BEQtp0c2egYkK-Se_0I-2090" value="" style="shape=image;verticalLabelPosition=bottom;labelBackgroundColor=#ffffff;verticalAlign=top;aspect=fixed;imageAspect=0;image=data:image/png,iVBORw0KGgoAAAANSUhEUgAAATIAAACkCAMAAAAjUFIdAAAB41BMVEX///8AAAD95d7+NgD+GQD94Nj+tqb/JQD+l4D+5OL+5eH///79/////f////z//f7a2toAngD19fVsbGzr6+sAoACvr68AmgBwcHC2trbj4+MApADCwsIODg7W1tby8vIoKChkZGR/f38xMTFPT08fHx8Pmy6YmJiPj49ZWVkAlh3Z8/+kpKQXFxc5OTlBQUHFrZGzs7Pd790AmhxSUlJ7e3sPmzIAACI8AAD//PD3imsPnDj2//VDsURdt16a05wopyvX79cMkC0AjBvo+u4AABUAADkAAEA7IQBIJgAfAABZLwCdwdKmkGe/7Mj+dUwqm0hds3qx17A4nlec1JJetW51t4SWy6qk0qHF6cFTtVR7unrH5MQ7szvm8edxwW1QrGKP0KSIzISu46zT+eZ9zIBYsVbR888kjzenz6LW6dLQ9uojlEqson85DwDB0+JSXmwZMmBqgJ5wUS8eKDXbx7CFp7paQSIAHUBJYHm/sJP159A/MCbM3OmAXTdlqXEuP1GimIrGwLZ2ipWpmW4oSW4rAAASFgBCZo0LMFJ0mbWktsuVgWxebWhzZUqTc1EEHjoqGQ0AACwASHdtVS5QcYlnPyFgSTbH3/qyi19AGgAWPFx1ZVSATh8AACji2r0nTWMZoQa9AAAVvElEQVR4nO1cjV8bx7Wd9Uue0+zsrCQkBJIs8SlgwWAkWw7VgtAHTmq7qpCB8CHbgEkgqRO/JHUcl+Ikdpv3Gqex+xEnrZsmf+q7d2ZXkm35lx0sp4TO+YG02p1drc6ee+fc2ZFI4MWXjyh4x4sB8uILR19Q8IyjL7xIjhz9+ZEXFTziyM+PHiE/O/oSUfCMl47+TFEmB0WZNJCylxVlMlCUSUNRJg2Vy6Tx0tGXFWVyQMpUYEpBqUwaKpdJQ1EmDRWY0lAqk4ZSmTQUZdJQgSkNpTJpKMqkoQJTGkpl0lAqk4ZSmTQUZdJQgSkNpTJpKMqkoQJTGkpl0lAqk4ZSmTQUZdJQgSkNpTJpKMqkoQJTGkpl0lAqk4ZSmTQUZdJQgSkNpTJpKJVJo10qMxMRny8SDLThlA462kBZItbXOzGocRzrGega87Xr5A4mnjUwI0Pj2hMYHOkOtvEcDxieSWWB7okn+XLQFW/viR4cPANlgc6n8sUxEGv3yR4M7D8wu3uaI7FvaAwxfKyZtJFDqbT9qiw40gjBWKTeUQ4/prQ+s61neyCwT5V1N6KvmZQ+vm48EBxyelDt+OET2v5U1ucQ0utrsbo/AYuBSTdux9p2rgcE8pSZxHSCciDy6BYRlf1ulI45nJ1q17keEOwjMBMDDhcTAyN9Y53xhLNeMDaeaDQ85WjxcNUE+1CZy5iLYyeHMaE1RWUdseN85VCbT/rfC3nKelt5MK1LKGriUUEleELrNS5RZhLa3jNvO0ymezpF6cB83EY8gscYCwrGyK8r8zY96IwRSk1PlkhWZbEGPwMT4/2PUfaoo3AZ26pY1jyckNwneAw/gsGzq7aXZpIqCzbHIq5IxIc6xhuWvzfyeFvUmGUlrRxlrYU22dHR1dXV0dt7akwU8zF3RS889/E2Mahl+4cSQ1CC9eGWLt6go6ujbTUZM2ozIb9HyqRUNtKsqV53bUfTymFXDhHuZkdI6UISUayZrSkLJDA79sU68dho4swABv/EZGcn9Cj92GRY6wom4tDtAEMT2sBYJ44GDHcOtdH0Gay64J9lXprKUVY3/ccanJl1YyvQL6IzcryusWQWOdtJPS2dTULDSSLSZDff19VwYAIpi2k9vN0ppGwcbV4XNPChjttGGeSxgH+2/ek/wJMTctEvctoIrhWMDQbjrgSHSYOxUiXDRZbMWIvUIIy1yEl4ITrhOYHiwhU+WOhAuZFID8E+ul80PAaUcafcISgjQy5lcDVMajAhZEgBjOG/wfgzPhnUhAUDNjOqU9gGrynTYRPnC5YICz0HlfHRngGkaJDUOXMZg+1xZ7hxJBCsR2Umm0wvlQvJbDpdA8ZanZRLGcGdAg3KfMD9ALwcF1cBZAga5B7PpSwyWT8IfH54NPgiPhhAh8FfQtDhSh0vFvzDhcPVBnaQSDSupbjGfA6UBbhyfBg/x92+c8RxsM4obKcox/u5HDsgKjGLQW/5ejGTSVZKzGYttF+nDML9eBNlk0AUvsRcN4DhHnQ7F5eyBkwayE3PTi9gAtdz09MzuWXCzJXVi6sLa6S6uZBLGanNXK4GR1y+eKk2PZMySOry7Ozlt5FObDh9JeqVMu+B2S2Uw51ZoimxNVdJwd6m3qFUKWQsa5ERaq8Dd+kNoj/tuEgZXgRekDqUTQht8Vz36ODbE5SZLDAdSpmb/lXCyOa0zVbCC4TUonk7Pzttsnw0nCf00qp/gVRno+Er/mh4maz4V+xlfyhvwh7+FXPF75ky7yrjlZKPDOFThDR5tPHmkX63Gu8AP4bhuGYbNiN5K40ya+muunnaD8RAoT0Bl7KTkwP1Qsu5DKfqRvkJynSzGroMSguFGAmEq6ZuLGwSsjpjUCN/kTIy7U9BqwXgkZHZ0LRd3rRL4RW4grnoRWZW/VVDJ1XPPaZnlfl4JnMyWsz9rJiym+tKU2zXek1wsMlMcg3KEEyya8lMpvhWywPjYY5j0Pd0Nt6pf6SpNnVKjh730jwZmKQWzsHjLFirlH82T8z8skFm/CuQ49bg7S+GBGU5SHSrIeDKIMuhWq2Wz4XDeRoN63SKltqfy4YcqmJur8j7es3pN+sI9tc1lkxai5C9oBvTST4DXuOCbbQ4Kx6YMVe7DmVdYDUa5bxP9MYDT1IWQfhMg5UIrb4ZRTd6MRrevESgO9iMhi/nCZaOQmU5fw4u6XQ4Baokq9HNNzYRpVpoFTMG9JgeTYZnygadHBYRlNQZgxdNpaXoKzsgjyWTWQujEimDM12EyCyWydMo4z3veIMyeIMhkctMrr34QBOnTZQJh+gDJedCm6nZkG2S1LQ/FM0Z0GNeDkdDMyWDNVFGOGX4FBL9qQmrZ3CBRdvtywJ4aidxaVx8uDpjTXWA4/l7hefPrNmma8SMGnSa1uLTKSPYy/Y1UxbHV2Bpe8Qhxtx88AhlXSNQWZ2MkNI0xt4sr3no8mzIPwNpXa+thvyzl1pSdtGfNw3ThFYLoWk5yryqjEcOv+Ccq4gz2jP2CGdCY70magywDe4HOUJLaQOJVtY2nqwBHMriuGscL7tDWSCCpT3Iu7tOlNNrdj2Zyzb9VQhBUBm7VDOIDTGZIlXQUTUayhk6UkYhfeUgAqeh94SnGf8bYGsZyaWqoShYOJNGZ23Symrvm7I+zT1PzpIYxJgIuP6Mv1VE9GwijwFD6zYzHMoMtsYrTfJUyvhxj2FX4lCGOAkXo39Q9C9D2jFSJ+9xyqb9K4ZJZsMBlrqI7znjz5NVjMmqH/tOfw0uxQyYDEMoDjrIKHQGBslHzUt+oBLOMDobaHF2LSjzGpgj7gcSXafLGGnUAcTHvW6XyxhwtsSwRuGuv4yVppVrMZ6B/cqY+xZ4nLiT1kxIYJDP+oWLCYy7cUl6GzHqYiY0nc9PR6PLM6XwFXh9GUL0zcuwsBJegY7AP5NKLV6MvrltQ0Su4CnR6VBodeEyOBLyBuxG7c1QdCXfVpWNN3qs/mbGGpwJjWFfmUlaxfVCGlRVheKOYMKoFYTunqAsJhzEcMwZLhroHBOlrBiNA/kN9p7UusaGBl2WOrngB4eavK1ubvtD4VB+xh+ulfzhN6qbYTD6q+HVas6/wIiRD/vD4Wou7M/VNsP+2Rz23KVpf9QPuqM6uxwOR/0L/uhqrWVF9zhlHlXGq6UusewMXUy4V0T4s5M9QmPbO2AnrCV7ucjHL0DrlBplJBBQsB+/jJG4DxHHzjDIl8QKB3BVQIHBzuHh+h1Tp0G82UAbRqla043SCnTR+VQ1twyeg+ZLK7m3wGXg1uXllFm7wsil7VQq/zbFMsSsLVfzvN4kedwMfy0ybQvKPKoswaUglruaNdbgTGjs1xUrDYxROjWPnK0x7AFQY3xIo7D1w2+1H2Do40A0ZUw3sARHToAYWGMSMYAC/SMxUPKQ6VFMOvhZqLSgnW1AAa9PEVzfsqR7BJ4p41Enxlqce23NdzHd2gny2FUoJtNrzNBZ6YIFvgK1XismM1kuM3BmzwX46U0dh3NMCoyZSBfqGxaZyQf1kVTkhIkF2Acaw1ni3iYf9zeZ7mW43HNg+uqUuX6sr3nzmMtYJQOOFRwseu4yMJVet80aj8rMRjaZsZ4TZT8iPKss7lLWcLBNucQ36LiLqxYGI7gvA6/5IkSjVYWozGRBXyWIznT1uX2UHwueVeYGphjnP9bsX13bcYqkdkBH1jyOjho41LeF+asC7gL6gzLhlLWozI36yKPBUwslOIRKdWryl3yUFSIJejaGuYmHHP/necegzj7wyPgODF9BayhteUYzwelQbA1xa+o8FDG/imd+dMx8P5zE6pR5VFlQpH/B2IC4e+T28r5jjru4ivE3X6+9GVkrOmnfKjOdU7bx5KFxFJlDF5+D8QFppjvDkXwkGkiDB0hZOiRoTh1xbSe/YSuYIC4PJiZ8yA28Be5vImM65UPayL3TNTLsnJxVXjnzTBkvMU+JzD8QELlrwmHM0Rg6WBwUMxzRwNUF2WWRsgKkMPOplBEzEOSgzhN0X/DI2CXxeipIp4IBZiSC+DlhhWCMOa0T/BE/MeyFxwtCY1xLxWETuB/DJiyYYHyJmHqi/k7AGryQoMxjYJqNSYvAGDEn6qbDV8/8ICag5+MSKp3yO/ZkHjpNWFeGD2imMq0pA0m8I4587V3xxD6Fx/8ZnXqNv3zvHW30hPY+JR+cpvqRDr4JA1NsPk0/wKff7EFo3dM0eO/rmvYhmbqhfURP8P1v/la7S3bhsPDwPrn+O2h8l7AHzl63Tgfod9qc93lw3t1/ffbKAPdjcTc0m6okFBTk+49FfwkBQco7GJeFFX6EfKZ1+ocEtDt5+7VPuieD734f6+6eHL2ufRX7VPtKv939qXan+9rvkbLT8OnO0KlfaHdiX2g3UW5Tv/iku7s7Rr79Vze0+wM4wc/6tbs6UPa//0d2P9P+CJR9CC2u7Wqfk99q8HBCg+W5ztu/A/oefMT3Irdepbuvnd6j7c9l9fu7roPlJUBPINKksVlrppCBx/mSuN+jl0Uqy4rsluc5rcWhcY7L1LmblE298j5fAR+VkgQWtNe184T8EinTvkLKToBgCPniToBTdpO3/vYjiLtX/kihcfzdm/j0p7/Q6/dvvAetR7HB1Gd/IPcefgkPGr0HbJHdsw/Jg/dgw7tA2ZnEjft7XoYw6pR5Lcs7mzWG4CXgQI/rLkBi4GDLBeQIdUZNg7sL9GlloFAnNQjb4nYryiC3I2V64N25np7BTzDk5rriuk6bKBvWvgHK7mmjNJAI2EJl0PrYXfKt1tM/CLHIbr1H7s3twT5Df9774qu/IWU90OI8BB899/6Jv9BzfyUPzkAPyv52hn4wh3vdJbfu92qfwMm2P/07RXdTldQY0OCZP8sdLIQi2FaMTR6VWdFdLnHvvYGU5Vse3ASVfU/hqv+mr6/vDoTYp5Bx7kCWb1C2d+Ore2foLdANJrpRThm0PnWNfDDXd/b+NcJ2gbbr/P/8g/Pf3n2AgdnBW5zQYtrd77TY2c/Zg48o9J4fnAnAXtr9a5Td0uY+hZj1NOzvUOb5dglnp3k2VFOVtIO10BKDEo6WMWNZ8zYtF/F2SRbHfCo2GoNFK2MVWs8UcSlzAnMXcmTw6zmwTA3KvoEU9Sp9B3RxBJKZoAwDk2Jgfqc9pEQk+4ewz92//+ns3reosm/48b7TRuZGp/4xAkF5S9uDPf/8kMLm6xq8J6yYOqft6d4mlxGpsf+uZivGMexoLF8BNeE4Py9ry4V0NmN9fKWAjGXKG6izLZzvhj3qYutjGyIwp165GYxEIvSX2ueR+I0zvPc7rzuUsS81yNRnT09GYl8jZdAV3OQeF+KVfAFCOfewc2zsn9oe7HNd+2iUU3YN76Zgp/GQ6re0f43CAT+JR/4JWoTNsNeHsHcAVt6knmUmQVlM+NUGItzB9oHGLF5XwvmDI2QmJv2kVeSDPWXMYFlI+kzfgjXWRussC27/H9+DPTrLL8L5qa/RPWCih4/PHMpAK2AyvoOI1ebGeC777Hvu8W+cho7jrNYJrOEO74PKdoGic68C9Yj7lHwJ7gJU+BAsGIa1dgf2AqJhr9Fbc6OUfa19KKEyz4EZ4HVko7AUuQwYu5pxxl/Rm6N1x9iE4MyAg6U0XwTKNsCSYyqzaq2TBqTkeBw0ejuGCOrMF4vx6z4VCzIaidFgLKGzeAzCeioei1N+E43djutYWMWhKduF/bCLnbp9bSo2ymI+3XeNHuGHi1O6i4dJxPbg5NgUvIF4P5PA+t0YVFNHYteeR2CKG5n18QvXwW5X0Ist2XC9eTmDleB2AXOYVaiBfOyrsH0RTgtr9GyJMb1F1wQfAasc56wxr+hiOgos4FqGDBGsErHQ0bGK5NybvCsmVBRXvKKkuLNOsQhj4oDiCBQHfJjJ3wS7aME6VlfwgiL1z4Ey0WcGmxkDjRXS2C9uG7rucIEONoPr0m/aeOMGsn5ynen5AtiNeX6zyeO5HVBIzS871chmPjePVaBIwlk9eeIWtpQIcwaYL5kGWbJ4lzlv8amMWF4/rw/z40BqfpnPLZKcpWFgTDivZLpY5WPDOPpS5qPWkPUzUAcYdDkNIWqncFS2YoMYPXvGAwq56cXcVYwHnAITHCzKKbPObx4VF/OU5zNgDMqmSo5LDTirWsl0obQGYrSWyTPOyz4IkJsrK2Z+noq7GttJWhY42CpYsORsurBUglSKo9aZ5M424V6juGhjnVS4guEL4fljTEZ/zpCckd007R8zv3CwlG1XYDGTtnZeL+Ecz2Q6uwXc4CJ0llf4wD8f0oY8d/C/ZfJDkP12SVcTY9lkJl3Em246Ky0J51os8Dy2s80n9pY5VZW0k+4u2GLM9CfOmey3S8yJOmMVdwaBjraqipPVsaAsYJWEw4bYEWSSzkA2ts3z6b7/cZSRxGA9j0Eiw7pS54oipY1C0kVhfaOaL4Gotiv1dZk1cTPjEFAm+33MCNdYvoIl0aYtvLS4n7q1yrmZtRzeKuuLS+vOi0z6QkkYt0NAmfQXpeO8Eucam+LfTXAoM/jcnjRylMk60irW47KQdwbxDgFl8l/HD+LoBDCR4/e/dIcyUisiW5XFCh8ny7jfKhHKwymfwvUfAsr28XV8eiHNKbPxSy2OxESVlM7mqV1bWs9YactKpy03kRVfr5vY/1DKysLvz29hxcigHqcGvzOShlKTf7mlVN5YWptfXKzUGat/PfQQULaP38kwSQosBQ5Lb5T4eA+vKyEUd7YMNBzAD783ay87lFVNapgOU4eAsv39GktqnQ9gWJW3bGK49ytxOAM3ilil1fUirk1na8SZEPATJ0tg3z+TZK9ZaT6CUdncgnISkpt1dYtPKTH5hIjSRkVkMuvNFK+TDhFl+/uZJN1g5avCTVjJ9Syyc2GLiBxP7dRbsMrC75Ng2Wnqh4yy/f9+WWkJC8qMayfeqAHKK9Wl+UrGEu7CKi7m3eHkQ4Nn+JU88Fn5+UzdR6C35UinhZkFj7Ge5/OWDhtl+1YZ3kxi+aWddDrdZF3rBrZYWKzxqaqKsjqQC8hOpeX5HctKPgLIY+sbKewJKIdo3eZT/3fhmQITKTPBYpTyG4s72UIRYBUzmex6roxf08D7bIeSsmdRGX/kU8mYXUqlMP+/ncJBH9PEnwxo/kUYRdljqPsHvH/k7adzfrJo0w8+ix9l0n/693U9oE0qq9+bbDV74JBB/ay4NNSP10tDUSYNFZjSUCqThlKZNJTKpKEok4YKTGkolUlDUSYNFZjSUCqThlKZNJTKpKEok4YKTGkolUlDUSYNFZjSUCqTBqrsZUWZDFBlijIpKMqkoQJTGir9S0NRJg3ly6ShVCYNpTJpKJVJQ1EmDRWY0lAqk4aiTBoqMKWhVCYNpTJpKJVJwxkvowqeISj71X8reMavkLL/UpDCy/8PNwfAihQFMegAAAAASUVORK5CYII=;" parent="1" vertex="1">
          <mxGeometry x="730" y="298" width="100.43" height="53.82" as="geometry" />
        </mxCell>
        <mxCell id="-BEQtp0c2egYkK-Se_0I-2075" value="API LAYER" style="shape=ext;double=1;rounded=1;whiteSpace=wrap;html=1;shadow=1;glass=0;sketch=0;strokeWidth=1;fontSize=16;fontStyle=1;fillColor=#66B2FF;strokeColor=#CCFFFF;fontColor=#ffffff;" parent="1" vertex="1">
          <mxGeometry x="730" y="342" width="155" height="47" as="geometry" />
        </mxCell>
        <mxCell id="-BEQtp0c2egYkK-Se_0I-2091" value="" style="shape=image;verticalLabelPosition=bottom;labelBackgroundColor=#ffffff;verticalAlign=top;aspect=fixed;imageAspect=0;image=data:image/png,iVBORw0KGgoAAAANSUhEUgAAAXMAAACICAMAAAAiRvvOAAABX1BMVEX///8jHyAAAAAWEBIeGhvW1tYhHB4OBQh6eXmenZ709PQZFBU8OjtraWkbFhf8/Pzo6OgtKirw8PDe3d12dHWSkZHj4+PQ0NARCgwMAAVMSkqysbHP09mgn5++vb0qJierqqpWVFQ5NjfHx8e6wMhgXl+CgYG3vcaPnKjX2+CLiYrL0Nacp7KXo67IAADPAADhAAD98/LwXExlY2Sqs72nAADnwMayABm2AAC9ACT56+3EAAnqys/kcHPwpab639+oBDPoRzrnPzKiAADhHR/uZ1vxaFq5jp3hs7ucEjqvnanSjJjBS2C7Ij7NbHnhpKu7tL3Zk5zEP1LahY7IqrLDACTSWGPNLj7JABvMPErjnKHms7jVaHLDGzW6ABHaPETigYfeVlyxAC3rlZbPdYKsABziNTnfJCnjTlLuiIa+WW3lJxvtfHbIeonzsa6zPlbxjYb4wr3vdmvLS1vjvcRJ5d7uAAAWBklEQVR4nO1d+V/TytpPp2lD09IJKU330n2hbC1VsCC1Fb2e16Nc9eKGC4qI54Ac4J7///POM5O1a4qXo2K+P9DJZDKdfvPMs80kcJwDBw4cOHDgwIEDBw4cOHDgwIEDBw4cOHDgwIEDBw4cOHDgwIEDB9cB4vcewK8GXK3VHNL/SSiFgsyJ1e89jF8HYq1ZxVCofe+R/CpQyk1Nvmv4u47kV0F1oSkZB8p3HMmvguTigplm2VEuVw1lsdIsNAu1qqzplJr8XQd0/dGsLMrVGiclC2UgXhIxV3U8l6sEXqwsEvEuUHUiStVkrVZLVpOOi36F+FelQhVJ2dDhWJSSjqBfIR789n/0Ezd10nG1KjuCfpV4eOPR15t1wrQq6ST4lxx38Yrx8MbvhzcePd75z7+T5EiqURGXq46gXyUerm22nzxdf7dx67/PnvwnxCoVR9CvFE/Wb3Jc69Hem92NpaWN3efPdjZbWPruCQCcTlzjOGFnfYfjXrUI8Zuv37zY2Hi5sbHx6s3rvfakvHsipumhRGDOhFHocoPyIIQSl7v0p8De+h6380w/evn8wwsi8kToCfM3W/b7CaA548CLpsnfIkpfbkyuOUUEOb+2hmVvvd1aUsv7u632PofbewfPd5eIxL97+2Zn0143cR7ltXIa+WfJB76kmIdQCj5kV5geipFL9vMD4/US92IPCpsbz8nfZbW6vrnz5u2t3d13a7/vtMf3Eo/PZbVyID43+w0DijDFoiAffOQzeY/vG3r7MfHm+evb5GN/+QCO3t80zhBV8+LVu3dr7z5+HSfu8YBPU98elEAWziWPli3Gilqh9J/TKy2cSxGfZ5XLTPyjfnTs7i9z+MMyI/v2gVpbP1h63rq5z7X23txaW1v7+HWktMdzIppixWIQU87DiNKZcROT6AWNE8kgFCEVPKmIZuCcFCfFOJQSUCmQSok0FhDC7COU5nwZH3f9LGp7afv8y4oqyQcf6Ac+WH5PavZf04Obnw7XDtf+ejC8j/gMN4uo0VNQysz5NCrmQ/ksJpyHo5lUiCuxCgTaeiaaDqWh7bxeKabm0Wwmw6XCaDqTkiNyWAlfQznnbh8dbWtSvPWZ/l1ePoXPl7pOufnnjcPDj0+G+ZCE8xBTwCWERYPzNCqpLdIIgTMSoT4Nx2XJWQ+zlqCOtEqF6iYoS6w7X5pLpK+fFeXay0dHH7YY61vbxJp+Xrldh4PNpbrRqv7kzsfDw53BXRDOuaxACiIh2cR5HGkt0mgePmYRC3cihNKQpvenmBqilT02FCfS15FyjvtytH18vNL947zOnW7jk5Xtc1b/5pWlWevPwzuHd24O6IByngeyfIQ+g3OsCjAHnFN3Pedmh7RNHGU9cBBQnXva3Mr5tcXpytbBl+Pt7e3jk5NO5/hE1SD15dd6k9aDx4c3Hn/97bfDu38OUDDAOZfLcVxslTNxLuuqhXBOHfi5ADuk9OISQlki4q642ggVfxnO2ytEsOvnJ91up9PpnmnV+8tqJLr57NH62iei2+884B7ePbzT7zlSzhPIkwDPxOBcNMs55TwXZYeqmyOXEE/k3GWq/EU4546pxeTwaadBSO+cUkmur1AfZnN/d33tGaX560fyp/XX4d0+D4ZyzqGpLIixSZ/PCFoLlfMppKiHqgMYJvVaJdVOvwrn95hX3rrXadwDUe8eENb/IP5j+9nLpY3Hqlxv3v2bfu4c3n3Y0wHj3Ieo0jZxnmHijLHGuQfReBXnBMxRa5ohMyPEnHQOKjXOJUMtXU+cUH3S7jROO+d4i0h6d/u0vfJ57/3y8qs9TX3XD/9SS+07d79aO4hTKygiF/sw/PMiimfSYaRzTu7LTCqd4kEH5f2ptA/laOUcKXqhUuOccwupzHXO5R8A5+fde/XzDlHhlPXt7aOjleV9U/T59IZ+gP/qkfTpIv2Yz8BfMQBuYSrA4tAZhIIkAMrnIqxpHoLPaWBTypLSlGit5Dw5lo/0kAuvpZeoAjg/B+N5cY9VbHW7JFDaMnson26YaX7cr9OHAff5OXhAifvuSyX/MLbOuNMusaP1BjOm7YtO54gESiYe9tafWi75etdGutHBcJxtnXYhDjoF1UIYJz5j9+Tz9vZnfdmi/e5W3XoNdWIcXBon9zpUau8R9dI663RODjodDt9eOTpSSa+/Xe8T60+f/tlBXjPcb1BuzxttvNVoXLRx4xgoPj/WSP/vuiUOam3+/eDh17u9sZGSmYrn5mZy2dlUnhsEnE/NZnMzc7lsKTPIPmKFQBpwog8R32x8ZmYmUCxlPHba/3CodxpnoDkuzs7vNy4Ikxddptdb77dpnvHZupplwZsPHv555+7dwz8f/t0r+IkcEtw87/XyQbeAWErLgjTxUwR3UGvBh/tW92H5GY1fZMLhKPsqnnYUvOTC63fFeafRaLS58/sXjfug1rc6J9qp28vPwX5u0tW6x4Ttux//3Nms9/eh5BDvMoGf62mQiaKguYHLK6D5HmfFg1wu99S44aaR4DV3JPTf3h8fZ2dnjfuN83v379Oov925Z5zbX9ppLe3d/PRoff3GjacP/x6yGSDNCOXdQoyIMqGEn7GcJ7eE8RSEFlE/OxD4iKWVLc5LrKdgVBCIsJNS9CfkHB+DjBNQBUMcxoZZjvd3X9zafbe+/vThzQHirSJPeXCjeCmVSpWKAnJbOVdviR+hbMmXSs2vulAUruBRxtzMDufzCHqKoeJ8KuWbIrFU8Gfk/LRD/mw17l+ww4uOLsv45v7nl7svN148G6RODIh0sqNZ3fx5pswbXrgEvSVBVDRMayiMokCetlbELhvPeR7RW5XStBImVuIn5JwYzPpFg6p0goOuahxbWx9WlpeXdt/sjd1cVAL6rHuIpFWjnKaiKQSsrgpmSsK8Z8sG5y4ebIXFt8mHx43vh8Npl2t3Lxpn7Q7LulDK21tfVgjjX17biTYxcGrVEmYolPIBeUKmkZCRyRrPORVz9NPnvo7Pt1bOz4jZPGsQroHy9lbj+Hhl+/beSIViAOS4x2aaEQBdjgYJo4cqipzleDTnU27S4qfP8v7x5aJRP+gQ/dg+rtc7rfrp/W73uPvHpmw76xSOjnIeMkBsbDBPVOsYKn085zmiWlBkVIufAO2VlQPu4JhKdKN9f+ui2+02DkCjyLY3JM+6rWrZAhwjCiQYGHGpV9Du7njO6T2yFan+wPj8uc0dbDMlctLoEMLVXRcTcD5NiBOGcZ4ZqYFFiyn4qTnHks2dxLc/wJ4ioLy11eh2OwdtWbtStq1cqJIdpltm+JE8zhO9xGuzYDznbjJp0OBkjg5PuBiYmwus+ix+khwiYFvNfNPFWR+mFf1ZH1pt3FWcLsVnXDPxqYSFUePa/PzqaikNu1nT+czogTHsbXPc+/ekcH7v+Pj45BwTnkX1ftnnPBUbbkNDYxwNxXx+POfZ4Dgbmg8gwQ85Hb+A4qb8VxhyOcQS4Fly3u9GYggqUN9vnIZa/a6GowgyRHzQjVDJ1HYONl3CiHMo6vejLCdFwumSbCPz016ut7f3ufrB0crK5y14iA6ebMFMq4i2OWe8Dv4+n0C0eXzgKQawirA7FDCec+jOhYZrPVw0p32CJm8JrkQeTpyjoZgLiVycH2CGwO/Vc0Ue3pzZicaMWxjgXV66j4p+W7DIJbhwft7Gzsr6Untnea91e2Vl5TbLy4rsaSIMCsY+51R/eKMD1SwIZmzUUEC5uNVtMOM5l+D2+rPDTstzbvA+BZBVmlwwogKV84Df5fW7/TzhPEH6CvZ2BZWxlFbmaUYD4IesnOExMc5B2Hi3O+gvcmluPp0Yzzl+u/P8xevby8tHB9oNFPWt4jIWZdtPl1CXjw8OymTTKTBqLdns3NuIQ6dATKPZwUMT+SAwE094ZDkS9kbN9plyHkohl+AulqZzZK6wUK5nzoCMqHX0V/nRbFqSlfQs8O/VWzPOAzyPZmanitEsJyYyXHj8MyGvXr3dfbWx/OFBldMWCmST8ZDtc86tCjQL0r8NiMpldNSEYQqdlW1wLvIge35+oB2NEynno/qpKTOplPOIm1ejgYjIHNVYytIDjNc/bQwsltUYUXJE1N3atADOc3nkVnczkK9UEvn02MDhv7tvb+0uvWnjKryKi9Fi4lyehHMuzhJWgd4bHUGWQHMARJP7ZyevqNAJ70Wz/aPzwZfxJsGFSaH1B5z7Z93INBnp4KyRA7sztJgjEi9MG6fwnCkeA84DxWh8st0KT2+93X253+K4KvCtPooraQMmyly0629SZBEzWj1UwPz0F0deCXpX1T628udSEHQ2UbOpnhNyv4vk9VJrCaDW12+19GCHrBeQGlXRQVxhDeUg1+NXU3cB0DR+96SU31p7Bn65mIQvxVWQNKyw8VHPZTLOiS/GMyosCiYjjM8UeqlxA9hbJ8Ls/rrQnNVVghREzKre4OtV14Rxbr39UCeYr/AYFpRKtdUtiIOuZzQD58Nj78HDfrp26xNL0arvbJGrQLMCPWKZei/yZJxzkRmBUTFjUmuZ2Nic1NyknIMM+umqFCqaLaDf6/LGrJJH1TNbYGVeZqTvtEXzldyaAQChdvcszaYEPSCjct67/DgSrUc3Hv+bvc5C1l7ZIlVFTlbARVeFXZ74KfSwRoVBm13OJ9AtdGxFbVYZokYv7v0q0rlKKnDuDfacpl6KyQYRd1y1oJT9HpsI3xBlHj9wHp0kb9++8XtLZG8o4pL6G1sI6YokSoomOpNzzkkqFbGc1klG0AVtGGD1VFWqtjkncjijKhjdyvkMKTSQ1dWBb5CWA3NjyojCoWZBiZH097SWDdkHzsflIMz4GzbtSwV4gwin1Iw3E8lV2F2iEy1d5m0L+bkYW2lWhWdg3GGFKbKcgHMy09msimm+A81uKqIFeNqvaWXgvC84w0SwTcK/6nfx7PkDGo5msbU32fgxlHP7b4J4Qvd6KlTOsekluaJUrSomFS5dLn03Txd/+Bi7GtTiaL0nT+afm69ktjSq3lJm1nrg10MyOg368hMWFSIaFlRhy649MFZY4MsE2zL5L9UrLBTI36om5pgQTiiXqgbRl+SciwiwLhTMGWNHo4yxx+QkT8Y5c8hJ90w5BC2bXkwwcd4XtFi+kXo5xowbCNWTBP/crgnFTfX3i+UCsZkF+rpWQngyWZXAdSFFdcZge5vYBkCeoYtxTGBQv7dghdmbnJRztjyqkkqL3gEwcd6fnSAOuVd7oJL4gqoFpeHSwN6CBufDVyMtwAu6yBUKVa5GxJywDG/5k9XgSGf98pxzImS5VQsEPu1IA081rup9TMw5I51dAiXvIJpGcg55aNUYKoYFVTkf0Bs/Ked40fRy3HKhWqgpyQJhnFpLUX//mSwR11xULv+yoLQh3RCojAr+wYrpscfknFPLycwBjTmHNxzCuWwkWMhQ9VWAcSOxz/mC+YW4BYak5p4opvf8YVGWvoFz6nMzaxQao1wSaKJ1oj4oeuJyjCsxhHOu6Ne8SRJ56mEsdBsckbOwzXlh0ShLyTIhvGr4g9jyPksSGSmThaEWmLZEwJrECG+ROgBa5uQSnEP0yfwRWJUdRKqKYZxTnxyuB3Wi3zM8evuIbc6VisqqWC00m2WCgulsNWnICAmOVO1+SUCUrHKeGLGIxM56db/mMpzT1R7ofqADbmAY53DTaBqGyInfSCPmRs8au5wvVuCvVGsuNmsKFpuFgol0XEtqRRmkH3/T+4rpjhfVcoKe9QqDJ40Mzrygm9jLcK7veMmPDr+Gcg4LVXQFw2vWgVOj9o/Y5rxaKYjJZgX4hsNyE2Mi6Zow07eIciDiTMHL1W/Z0bBqckbYcsvgJVHY4uU1MqKX4dxIv49ekhrKOVgclIFhmvfMp/tz65aB2+O8WSHyrRNZW4A8Yhm8dIBYo+ZVSmomVanaN6F9igNbMtlFtylatDSLu616ZyznYl+Kgwa6PC2CCzN8qXQo58AfmR9ETMxpXeZPDRV0m5wvVkzqW1qkjOBCuUxvQ5LcDZE46vo9qSbtq/N4tmdOwMQ0HEQcpEu5ud6JE5qhlJtSgeM579v3TLcNMOXEXKTeWCBlXpsbyDkNP2GWWOLlsDBg2oha7zY5r1QW9DJe0LR3slwmRRKQKrWC2YpO8lbuooBK5tWWUo/ZZMtpPAqbf5M0RWsFs0M2MB1rhogEf8rUi8xmilozG+25h+Q+xNFYziHNIiQEswXlVEH3WnOHCcG8HmqD8wX1jeeActkYNrGkUg0cdbMykZITqPNiEB6x8EVkYnrlSDhIl+bNXIbc9DGLKJpOhESMSaNUFtEVNrRq7gg49+amrVjNGA0IPd4YWs14oBcpPUUf39CX9rGL3sUZbcuVmM6i4HjOIRTms3xvbpaGuF60qtlVxTeH3Nqvssl5oVJpqsXkgvlEjXrqVlWSnOSfchVpUktAKBqMqvtKogFLf1KOrSH5EULuYAyhGHv8qEcT0MyS12+FuQ1dsHb5BegFunJZBVubUCgwWyqt5hAyNk6M4hzY5fvdcZZB86NgtlSayrqQwBt+kU3OxUqlwjSAXDEIkWvEUydavWaRa5PnaANxQcu6qak9Lyr2WoN5RhDNYaiFIMr1cDAwmxe1cB7s6SVouW2Km+3S4v1ut5/uDxA0r2gE5zSu6t11wcESIF2B8QbdbvpcmmkFzK5/TgS9QqW3ovFLfMeFZkEplKtSrVw2vfpcqk3yKENoFSG/nkn1uhE/wN5L00gwpVv5GIr3+Tse5O+HhdR0AAnGI498FMV7HpiZRVF985yXTCv9Yh/pexjnYQQ7GPsdNU/A9Lt4N8rp2icX9btdY4nhqEY3/m8IEM6cR6kJDg0mRrSgOYjJwmRBqJyZ9sJbKWlif3pI0ClniqBbBDr/i4NezhIqTvfDrM+hjS8b074qN99PojI/p53mpxPGz0isTk8Xh3jvCnzvwI3F+VVB/7KSKWs0CyMb3JkVeBFIl0CZi8mFSlMV7KaWU+dkJVmrkSgUFyZRLdrFkXQikY6Mtr0KaQS7GIKrI5uNBpbyiUwi7xlmcqR8OjN2JLa/LDT6y8ZeD5K+wOHkwmLBFB1Z3UJRrhYK/5vxDoZCA/7RG42uE8pEpzfLZidFXihYWohKjbiOVzoI6oXFvkXSfy5UCekLZmvRXDDfACriuHzFDwOy511s6cNrAQzuS1lnvaYHSlgibiNV8Ur5ql/UFKakT5jN+pkhUgWjphHVnLpYLS+UtUj0MhZ0QkwLfWH6NQeuEQ+mAv9FkSpzpbCwYApExeY3rBDZBUuU/IRP6n8DpAI4joVFMVnWMuoakjUu70spxMtOX52OwXNDn46+ziBhP5H2SqE3Uw5inhDFHIdzVyjwEnvY/5q/oXUQpGRhATyZck3RHtmSQN0kZDmTSGSu8n8zedh+tF+QdAAJPwvNRcp8VRHLINwZWU6nMv/E/8P61d5laQWWpWo1yXYwekQxJMuXDngdOHDgwIEDBw4cOHDgwIEDBw4cOHDgwIEDBw4cOHDgwIEDB/8T/D/4fDy/4T2+NwAAAABJRU5ErkJggg==;" parent="1" vertex="1">
          <mxGeometry x="733.76" y="424" width="92.91" height="34.06" as="geometry" />
        </mxCell>
        <mxCell id="-BEQtp0c2egYkK-Se_0I-2092" value="" style="shape=image;verticalLabelPosition=bottom;labelBackgroundColor=#ffffff;verticalAlign=top;aspect=fixed;imageAspect=0;image=data:image/png,iVBORw0KGgoAAAANSUhEUgAAAO0AAADVCAMAAACMuod9AAABblBMVEX////97iEAAAD89qD/9yL/9SL/8iL/8yL/9iL/9zv/8CB0bQb89qT//6f//Nn/9i/56gBtZwdOSgpoYgj/+AD//ev/+Yn//eGypwDIwDf//6jt3x/05QD/+87/+Hz/+qL19fXS0tKUixPl5eWIgBKnnQD89ZZBQUH8832/v7/98FH89Y7IvBrXyhzOxjnU1NT88m69shlZVAzczx18fHyioqL98EijmRVDPwmTk5Pw6pjs7Ozm2R5kZGScnJwhISFUVFQ0MQceHATW0YiwsLCCehEyMjJ5dk398V6FhYVra2tUTwsQDwInJhknJQXQy4QxLgYZGRm4sTOooS6no2qOilpvbEa4tHVLSTByb0ibkhSalCpJSUn/+8IeHRM6OCVbWTra0FFFQywAABKUkFOln0d7el6LiF4WFQMdHiNsaDTg1TuAeyVpZR0nJhCupj3f3sV9eDexrGDQyXVNTDxFQx//+re6uKignXXHv2DfQGUSAAAcgklEQVR4nN2d+1/aSLvASUgCjFAjWCumFUTQIhcFFKilrfdaZbX1Ulvt7e32PW1X2z3n7G7POf/9mUsuk2QCiSS42+eHfiqXkG/mmec2TyahkGdZ4XceLT/emnno/av/PFnjdZlf3lq86dMJVB7yVtlZ3pq96bMKSBZtsET2tn5CvZ4hbE8PVxPhzbPTD6YxfvCTaTWGfXcSTmTC4XAmk0hkVs+e/kIRL8/c9Cn6Jxj2FKPqApEh8bufD5jAToVtgohPXum8Lx7/BHMYG6inDFiVmAZ+9E+fwrOI4kPCAVYDfq/xvvlH82YRQrcHqwq8eapP4Js+5QHkCQLYzPTDhbyZs48q78pNn/R15Q06+7Neemwa4Ncq74PsTZ/4dWQPnfrLqbgrWjyDNYV+lr3pc/csD9B5H0SaS6V43CVxInyizd+s6995uDgzszh7w/5rC591R+KADBaW5lwCJzKeeBdXHhkhyvze46KbLwUgRXwCNZFDAoDM7d4PuyLO6Lz99HlmmbfLm5uIykgmkBM4XSAxVmov+vyg1y/s4I/Uc4VauZCro/+/w/N+fuhOm8CmKFhC7HKIE2HNXj12+gWswamyJIgRSYqIAiiP8PzJ1Obp+6E7baLGdZGzCwCg6WIWJ1Y1f1Rk/QCO0XKKIBkHlqJcoT4Ho+/P8K1hDu9jZ1hVp2O7fXU6sakmwo+yth9AV7OuRAE5XgzaQfyfSBTMwS+eDDVGIWZyJOoAq+v0RG+dziQO1fhqy/ID6Gq2BKAda2GutNSUyWFjcRV3ONqcJQMLz6YXLAEGC70ncSZxRnLgN6Ya1jP4SsVk/5bi8RLhBbsa7qNA8Gb2dt6sPMxCzuzszGOttljpC0vOEzSnMz2AdXf0zPhBGKIdKBHTceQmvGr38WDL9xHuaUC4lHc3ZIyLMOmYwHJP4IzmjjR1hsF3m5OsR+HC4fhcDPHKc2jSfw5EmXdYsGljTrkjhsDOKq25oyfIOj+EaVVbsh8e4YbjC/gNdKDEy17u65qyxoLlkw1RcD24OjCcw068arqwM4OMcRuwriXB/RccdLCAjpP56OS9ri0kFl7fTybXv5iB6wVOsKpbH14AjZbTABvpEXNk8feb8XDmDAU08jQ+Shd+2NcKPf75fUEVUelUarnUhjZ5Kx55kZV29MOJ1afksBsNBwOIzPEqfy6oUzezirTfR9hn+FpTOgtgDBcVuMrkSBcPei3qUaGRH3aKtBKrLwlvXmIfVZ6IJ37hK+hNPHUPfbVUeHWny9kVC8WtndZzNBDeeVWbxeTVwquagxnErofTpi72Q75NXVybaDhoKxCFRh6+f1Dzqs8YeGGCNcAZjbeuMGPw3fgmyUXI1E2g6m3WH1gcmRd6xIeSCGpJqM+e5y+naTSL95AsqkyyhlcuTcGrUY6g/+GPww++8YcWDW29T8gkCR04wPWORwesAjdZNjqTIea5zopgYmhwefxf/Fk0dX1JEPCsVfpSAJiIPedHmJrXn5fbZQxwYhPbQL5sv9Ty0hQMvUYE09T1o2SFDHLLFUNEqNT5cwdD2heYMcCZMLHOuajtYoPwFAwaK5IaMIcTMLlf84EW/toXtwCSoOT5yaj36cuRGWwz0QkSPCftAfNCHNqm52jUge51By9VrSBL4X64gMi19iv2sXD3ZbBgDToSm8QXNaxWEponCFjAShdXr8vgMQaMzrvedDMi1nKdaw0vS6Ezq+9V12v9bDxzRgyVOnV/GdxQoZXKc6+WRxIrZYX8t4niYm/A3FLGzEtc77kFFzrdqVd8Dp0bnroZpAUD0i67Msj2UwYqLbe7NL3AyZ6IgQyjaFqbSeS8bcGFASQExAfGUxd9rFep1oW48LX9uGNL4TmPxFChad4E8bw5i46BORhjlPGcicXVGGMg2BlvNsrp3JHxmZve9UAMiGNRZYrgWj/TjB/yBXx2eplqoMF9fD1Ftp878i6Q+P5uzC2xvETjfsZhhsX2wQCS3yYDTspU3cHCZRQ19qygegBGA4xWASd2m7LsgtiEm0CmKm9V5ebU5wN1nqGpi4z0s/5QjjIP/c9A09bEGyMZHiJeaoK+g2zCRdFD23oqcmlTU2+iy92B4scXMJXzixadkl6zgINcWmr2mcg0Lh5c2/GaU79WVPVuIi90MlBez/tLiwdYiw8zU1NTpemFURFKBIok2SpRauUJfxq504o1aJFLn7VoQNZ87vUHl/dRk3VggFP41bPTly9fPn36+fT006d//348WatUFBhpR0UKGvpUfXDfM+IcsLC5r9oVUqTiBzHLqFnmOjlcH16Y4UGNnkK9ny/1Jioi66lcrRPREws1Ww8TE2R3/fLcO5H6ZGKgihzqllGsv+ATMFrSJs2fm2efXn80MY9V9GtsRJAs/wB2/6NDVEGeUGmvH2EssyaLv8CIg0Afnrw0GkDLKi4qHxsBZMdm1KTDGjk/cF8Np65Pu+I6lb8uMLXemcEtr2p5ldfSKOxaNDtlj+vAUi6i02IrdX2jvDhwnNwfGDSX9MmJym/hs1ekpKuKHkNO/aJFTrRI/6ZoTwYrPqLfDUiTDWBgOFY4vNAxbSLTNaZdZWxtw5iF4Q6ltKrJcN4mXg8WTO0FOHEpXlVbM4lDqMjvX552zWFxXI+nnE0mslIolhpkSWiGkWkFQEuW66bO6MZ8fkOzwNrFSLyyJQYUbQlfjvkBYHHs+CVwWqzJWr3ckIJmk9SpC1XZ+cpDfUfT1tq74U22GJmWv4JrUZDl7ORwc/PwjHJDXR0NZFRVtiUGNC2KpbMD0YZYuYd/pChuVtf6Mqok0P01pDhT0wZX9boQx/FQKE4evKYc4OACp445iIwrq+v6ZSZWG6qq86ngGuTAS307MA8KZuYuTN+fKM2F46xO38xq1+QOiBtadZ64sXji48BFR7LGd+5PAcMqAGqyDLjm7v2SbYxx9Z9qPcO6nPjoOKua8VVfuokeUHFcYNDA1viKF+6MD2Fdhqp81+EYC6hU58eaNdTlduBeCAXN5vYTVFilAmOsy6tOExfsTr3zQZFDZFEzH2i0bADThfPMO5M7wL2NL0bYJwKWNv1Z5SO9pLXgR5cAGytBKKWh6rtIl+F4N5j1bTDx2beO1sCnLi0yp2U9iZem4gwKl+Bk7rCuu1zi/WubesTuqgmKN6bpsznricVxpZWxWM9FfFj0MmTe3DEVtMgLYXVVlm7mAUtxVIzj86JNz8TPvnazPgk6rzcLAGqHwTbt6uW5qaeTlfwXu2WOffW1ER3dmWi7XSJIkVEaCGMME1czfnYuiIJStiS6oMH70YlgCPJDDuY/GAHcHDTCJwV6AoGl1TFkpKxDG5kcrEZjl+yw3K4uqHieODeRyXO/saJY8dxPI3VTuEvx+LRseil2wvqgmPMrtjDj5oaOa34FXFYYnhDRDtiG8DfBvW8eXIlJ2/K7Ax3J0EJmXSCui09JNZ8b0InMDh/3/oTc90NSIxBaUnMdLm6p6eJTPL+TDQAXFaoKQ8Xl7veP0IUkz78I4sbrZWoJbjjS7D+40OFuB6PM6FYoH/qK3AvoTwsn7ng7kFtUZ4NY+ZMi4kAXUOCFlu/xFJYH/q6FAUkUpEYhxXKkrkXMixU+gBAjhFeHfMqHJDEqdGr5Ns/bG4S8SQcoG36nBkSKvsxcOKSRSiulLfsMugADlCve/1sYkewM2qEAoPJWzvfpJb1BV06BkoZHeREAbZFepPEsUH07rbpl/XLg1SagVPd9zuk12bmuKoOIwJW3u1ZUT1PD4e5NJX0MD7MXAO3WtVRZEkWllmKQInGz1gQnAOAUhd2QoKSr68HYqZB3qwJRK/kNB1R3hwPKGOLh3yVzFcbb6epFQE7omUdVjgiN/BdHVChjLsY2CqNh/ttxVZEYoQjg0unqRjCDCwOqlusCsyTcba33QuXtvdasw8D44VsasjIvs1JNk8ENYg+MedeqLAmVMRWpXlD2HWhdmAHxir+oNpx6mjuX6eMr5HKDSA62WG2HNsEmuK2i1jghEm050Lq5W+M7UmLHnwJcp3r8jQ9mCwyofH2mGrSgSkHzq+rmOrjOzZJaX1pQuaj2XowCEneJjhVAKrTXO7KFcWHnvK2xXHCaXREdbFWtb3AhVav974zlkC6v+U87g+4VdfjNSBR6m++YYq34hP8cH9XPU8xfl5ZL9/0EvCR4cAMIqGAmpGjbQgjRqIg2vJLwnlfKpGqW5ley2a/fN6emjUFBhvVamgwa7lweGtzBGgCZgrqX20ks+/v11HZuslxpVMq17QNy/niX6EX+aSJjKpKKbNr+VsodrHTZDWZwHewNHtQH5PegWz7LhE01UgdVdu+9+8lFMIMbmlnZe/PCeto79PbuMHs4zajb6GgXn63KvrXKSpcHwQyuKtmHszPFLSjFmUWzZ0c1nZeJsFkFo99ZtC5iKSLIBMLMAAYt9iV6/L6CUqG1wGgdBe+V8Qtto5Dg5UebuImTOXxvfkHdI6c9Msn+TBU5vuzQafF+tHy8aaYFCot2300cKqF9FzRJHrMzP1BFlmHo2z2SHRD5TavCCba6Be+uFiI0ktQ32jBmZl6SKlJl/5f8+oh6Vr9bra1UZg1uf1plm09+o8oe6UsLLVBpj26AdkU9qRGb/RFZlZr+Q8spnWq1y++8Ub9xUTVrTadBPpVOW2izW3uB7/yoYdjva2HaKRcZFQfSVexbyD51VxZacJRst5Mw2zfTFvEWfjvBwq7oHDZjwrRTbmqOkPZLNqRu8MVfXEZMVwh0SM0rT9NuPVGPH0TAYYjBYQ/4hTHeJm6qejAN2ocePUs2GV6/OjKlu5Gj4hbS8i6ixeGFtskmliD39SwaP2O/IU1iZbluxraRzq1ggu7zv/5qJ+tXZWp05f/UL/KLF9nQ7Ja6C2WuolS+8EHGV/SuiN/tgYOQ5G3iYmkJdNLrfCp/nL7swGgKiFE6nJIqWeOpPUZAm5dEKcIhMx3ECiAR07OCGHeSspxQqu/2RdLR1XH1UgESYOwIo4xtZdXdGA2pNwRU0UgrKHgOzCut0D/JmJLCcwbuutI7fASdo2rHeeebSEdLr5L57e1cLpcvKEIEKJcXV5LyLUjaNyYKu45Gagxanj+XetkqCcYTbFRJAREhGhW4MqLiy1yF7D3JKZfVi1/HoqCD8sCgJm7WDMHwpVF2fapbYFXGtaF1aoAXkRloj7UqkhDloL0XxUL3+PLysnp08Q1v1wQuEW1QT90qmhkY6RxuO2VKTnHa3tWpeiFAP1snFZNWVMI/JzY24KVDejWJNm+TcKYQEKzq/g1hdes50cJ8aPKu4KENI9ric5wgSOWRLp/kakSVpGjlfDtf6KhXLn3l7wamJrFuQVywj5ZYcMaFdqblJpLEIlXwrtVR1al1tUUMCe0boh5ESe8Hs9iJhf9kPvkNhvFh5gaGsNM5lhx04LUUoKrWlE6ldcDaTKBTPQhuT/hZfs5y7zCjpOg8c5FY9wpzFDGPwkc4wPucCIAkbDCyKXCJgsmgEvwinziznD3DmkY3etC6ZIV5Ho6VRX4E7xQKw5Ztu9MmCX5AsKHHyUTCMriMdQUHn+v08V4Szalxp7DP2iEXpPMBJkHL/5XA91jSwvCVgvOiridWmEKuk6sD0w3GQitpQAli0R7L2qcM2YGdEsZZsEs2SMa8tTkIKdUVQ8/LWFACjSofYAr09b/Rff1W5bQTsFIhLN7aiaRyWd3RpMPsFSeVqqBgQ78iWpsu2/t8mXmud0XmCuqRhTozbVRQbBGYtw3xf6CxVfedNMS+sC6w+4k89utoJkEqJ1nGDSry+qBbYfSnxRt+0dK1b5bLrKS7XTiwSYqZQYF0oIoc0p7Ot2qhOLDhRpkrfozNhlyImGO+DDrI/6wFT5vZtGA8t+FyLNrez+FxEKnMzpGkarCKrNOGS9YAYsPyXBh2cnCt7l2Fnf0CJWBFpmjHbR1DDYuWRlk1m+t0jDo0F8GhDdQi07SykLOSWHZ+Zq5e+7dZDBzaQEMLRHuo0+JUzDIrJRMLywvZ79KQolEx4vColZ60VdQOGESTti6/nqm0czKksY3ugWkfc6YXsob20XJ9LNeqNbxuuAgNcvVLwI87+3pC0XKCfZGrRT/IIWq7HDy/brbKIrR2f11dHNdYnbo9JY1mbbAr9W9OExQtJ9jtbpJ+xoTEqGKY4l00/BeXCvCsylIVL28G+2i3R0+1x+GS3iGBkexQ21YwE91JClfc5qucpDi3dDoI0mM0tEGVVoksf1Sf2B3XuhsZ4T9lrJi9CZTtjrYVkZNqB553GEljXxvMY+x0WeFfkomrd8FJXNuG06UecMeqpVO3gt6V8DLoN2+jC/W4mgx8aFHx/P0q4o3HtF8G0W3G5NTW6KQOg9aaq/Jo8nrABY00rkcFPLTk+fObcO7S3UMCY3YeaI/vEpk1KjrIIO0Lx5eutVm/0SDgoVWXgQ4T4fgudW6iYtdmPqfOXrtX5i1laPLSUZ+ObIq2SkxUkEEjEXJmZ4n4En1qgOGK+A119goMTafWQvXmhaO0u82fpMs0LtAMoStOXZk/nbLcBS6y7qIY4TATIwgxSjYRw4cd2fqkmLANqMeoozKI+xgt8kA9s9cly4YGQKgxQolJfM+BUNmwvaPWlcFd6rXjan9thslAuorWcgONkFXRVzRf2XfQATk7bruBQklJOrddChIYm4uTF9V0H1eEYdGSbaDJjyZG28V3+7O+osqInXcMdyHY8yG8HmTNo66qjqv0BiyetMN5HPAT49TsO5sBQWE5X05U3e489W10A13EFngmYfzrPLxSJ53G8XGgJQtK6IfEsx5DJig5O+857sLHj9bLzs4Ui4t4o1DRUrvqHh9AR30Eh9dh9iIDlU5voM8OqW/X1IrQZjy5DohgkhFM8maPgWy7tbpxRHS0DnkbDF7AoRv60rjBPbClH4tY2kxarAcxRoROjmGg6S1J0EWD8SP99pUaNKA7GNOQ15wEAoAGtnqEj7s2JFi8S6BpeJlPeEWP4cxZF/pMK4/ohQoMPL5ptbpuVTW2KnlabRbD+7lKHFZi9QPDcD6qPLYw8NscsyQuiYJS2zYRr1gPo8DBzR8TJwSdLW700njTSG8bHQVK57KKUKtHZIY8CWLfGgeZtavoOXBYAoDEXKWQT2lpH32a+IUONMrrUD+Pj+E/aJSLoaz24PBvkD+tShXKsRqtBR8e0/LECot4OccnE0qRaJSly6SFsFXZriePIMsRZsFPJVjU++2SVxdHR+mjo+OLKy0wfTGMqIKSBzxL8orjg2PRBmBq7ykd26oh98jF8cXFN/VOSPWtReaD4ZEEuA7CFoYqY0mVRXbnl4girBnyIXpk5q1HWDPey67Y3kW3hQ4ZFcnOBwfejfOOELEDCxvwvUU15qSn7p756xYnmi0+o1pI558Vs8OE1GXlIPPZSdOSLcUOjN4ohh4SZaYLDhBIG8InD5iWNju7ODMzs5gdDhnzDPjDqVWn8YUeuNURzK3j6FXkfchMtarjw8WZxZvE6SePPiTCic1Xjrz8Qb4ChIhWiMOVKWxtSQP5cNIX32SRX8UPhunBC8PdViOCiUW89rlGvkoM+tAt60Cy8xotGWSmKk6bXKiSasExVgs12nfJDR8G720upgt3pzRq/NUM3aLeW4jTH/yBv7sbo14KNWNMGZi2iAY3HI7vCg3GDUCWaZwjiTyVoxWXd2BI9IAY2dvjYyOqjMl3Jsr6X61I6JY8ov8Ve3s3pX+wUsIHEs/1Vwqx0GhrxC45cWDa0FeyHjQnS8x8liWWhzdlNRN8e9z4DKQ1+l9To5DW+Ct22/iDP9/F3x3f0F8pTIdGWV1LbWFw2hl1cBcATHcijHyWIQ6Hckk7NhoaN2pYI6Poq9TbfCMeGmXpWdIH2tC8NrjI6sJ81mGzC1ocTJN72qbxI+1x9NW31HK4fC9A2lljcJEAUSz3m8EO3f/uaan3+PHb8KsZo6x1APGDow0tfyAruXrcJAlcrTfwMnPdxj3tD2oF7e49+NXpAv12kLRqw4lpQ28pCsr5gx68Lx7Ygd3TWqZpiFbtwlKwtEWeLOSatwpAe/ZMjm04Az95Vlycffjw4exi0SttaNyohExOwK9Sa+GVTLC0oeXfiC5bUx4QiQpKOVfvuX8aDK4WPdPGjOI8ckG3x42fuPs2YNrQ10/ELjOSWoB2JuUa5VZ+bH/9YGNDO61ne4/W1tb2lh8b6ZsH2iXzPKXe7SKrFSxtlj/NwLkbLzkWaaQIhMaiVhYZZRYPtBmj/rwObTBlteqIiUm77hctqmKchBM9cC1ZH/OWfg+09+7SHw3NGQ4Ix1Y6bZ27a4jsFy3eLP10NRGf67sQKahTzl5r8UBrmaiUYpdLNG1KuHXPEN9oyTrJ682pTLPv/vTkROz37nigDUWNSLgSD8WMFTblrZnWP0KTkPz8/cnqdJ9uNq3bxLZc5YV212gTnrwfGjfyzfE7Q6HVV8E+nO2yKnCULpNzs3X9mGhvl3rSUjM1txAa19eakjhstmryrQBxef63giKIjkOsdbRme9CKAtWNxKCl0oDU6C3DZuWbJlpipeSlAGhJD5UqB/maIjj0Gwtk2KyLkTRtPZUykkcGLfXZg/G44YBwZGX1QK3pIGjNm0Kgc87VKgr0s1FRE+R0uU55A7/9rGgKlmlakzBoQ+NGrAh2DTXo/GDQFoKhtWyUoF38ZGokn8+h/Rq2U/uW1c0XRi3cE20zZxCOG/+Xbw2T1nY7fS/ZMVf9PdFOGOO5biRA69hIDY/WuldCL0mZ/b0n2h/MJlFStxkibSjL0ma2KLs0ryfaOzLrk4WlYdMyFu2dpFseH18o/bh3687t25j2YL2drKfGRka287lWYbJWrpQ7SmdSstOGxlkFP5TcDps2NMtYhLRKjpztWKvcUGQikiBAl8UpHbT76WQrP1KvFzrlFHNs6WjRkLv3boA2ZNsoyCKpGic47E1LSb5BOnKYtNOM/Ra+4JLc8GlD2T37yRDZz5U5tHrPbFc2ZLuiaDupM2njjPsYtLB46LRQnSlr1d143k6mtnOFsmJsN+p4kzm0reVmrGfkCFNchplq7Vpo1/NIykOghc7oyWl4LhaRIhFRFHBEZQokAfNWVYhTVlry7d45EJRxe02zPGehTY0vIJkbBi3k/fopPhGTHfIDkTH1IOpksn/GByVqL8egCpyZNjocTp13/nR1ounAa92kKFXmaiT+dUG7ZO/pV43UMPJbJ1nc+20zsQQHmNF1Qq/FpSY5/akHbmgzNqNeHw/dOC3ac/HPT6tz001gJTaK3qlJOZbxULuA8pZuzccC83ob7S0od4jcHhrw4vLH08N4aXoXIsuAiKTd+zdWk0cnbnmq1IRYgWZtwkpbl1DUMo5F9K/m6EJmnv361+nZZjxTmpiYnp6emPgDdx+NlOXd+B3r6bugpVNcIiS5DTnUk/1YrfYkZG/Nd+///PDnn6hJsp2r7Cb0opFX2gXr/Ta4AudI69tagReZ/Z///XS1vZ37/f/+iL81TSWvtCXLvQhtzUj9jWidxSvtD8v96dt608zPSHvHYqYm9QDxZ6Slm02Q4HVrLD8lbdPc0SLrhZCfkva+Kc4+0I3Uz0lrrsSNGRnAT0l7y5TiFoz1D2Yv3N+OVn06TzLZRn2O+l95RKv91c7rtKHxVFKXtlqBQzKabydtMuZDn6OPclvWn7wkyHdKEf0PkYO09F+axKIC9RWjWsuJgl1E7v8BRdOhw5T0kVAAAAAASUVORK5CYII=;" parent="1" vertex="1">
          <mxGeometry x="827.08" y="407" width="50.13" height="45.06" as="geometry" />
        </mxCell>
        <mxCell id="-BEQtp0c2egYkK-Se_0I-2076" value="DB LAYER" style="shape=ext;double=1;rounded=1;whiteSpace=wrap;html=1;shadow=1;glass=0;sketch=0;strokeWidth=1;fontSize=16;fontStyle=1;fillColor=#66B2FF;strokeColor=#CCFFFF;fontColor=#ffffff;" parent="1" vertex="1">
          <mxGeometry x="730" y="453" width="155" height="47" as="geometry" />
        </mxCell>
        <mxCell id="-BEQtp0c2egYkK-Se_0I-2093" value="" style="shape=image;verticalLabelPosition=bottom;labelBackgroundColor=#ffffff;verticalAlign=top;aspect=fixed;imageAspect=0;image=data:image/jpeg,/9j/4AAQSkZJRgABAQAAAQABAAD/2wCEAAkGBxIQEhUQEBIVFQ8VFRcVFRAVFxIVFQ8PFRMWFhUVFRUYHSggGBolHRUVITIhJSkrLi4uFx8zODMuOSgtMCsBCgoKDg0OGhAQGi0lICUtLS8tLS0tLS0tKy0tLS0tLS0tLS0tLS0uLSstLS0rKy0tLS0rLS0tLS0tLSstLS0tLf/AABEIAIMBfwMBIgACEQEDEQH/xAAcAAACAgMBAQAAAAAAAAAAAAAAAQIGBAUHAwj/xABKEAABBAECAwQDCgsHAgcAAAABAAIDEQQSIQUTMQYiQVFhcdEUFjJTVIGRkpPSBxUjMzRCUnOhs8E1cqKxsuHwYrQXJIKDw+Lx/8QAGQEBAQEBAQEAAAAAAAAAAAAAAAECAwQF/8QAMREAAgECAQoGAgIDAQAAAAAAAAECAxESBBMhMUFRgZGh8BQiUmFxwdHhMrFTovFC/9oADAMBAAIRAxEAPwDApFbIQvunwAIR4oQEAAJFMJIATKSKQDpCEUgEhCEAFOkkygAJgKKaACEEJ16UiqB1ukhCgBBCEFAJAQikAwEUhCASaKSQDQEICAEFJCAlX9EgE/FKlQACKQhQCKlW/wA6ipeKqBGkIQoBopJMoASTISQDSQhAOk29UigIAQhFoAKCi0kAJhIJgoAQUEotAPxSCZSCrAIRaLUAFC2P4jyvk03T4uT2IHAsq/0aX6knsUxR3o1glufI1yFsRwPK+Ty/ZyexH4iy/k0v2cnsTFHeMEtz5GuQtj+Isv5NL9nJ7EHgWV8mm+zk9iOUd4wS3Pka8JBbH8RZXyaX7OT2JfiLK+TS/Uk9iYo7xglufI1yFk5XD5ogDLFIwE0C9jmgnyBI6rGRNPUZatrH/sgJ3/RIFaYAIQCgqAFL/ZRtO9/oVQEEIaf+fMi1ACChBKAfilaEBAAQgFFoAKSEwgAIQ0otACCi0H1ICXiohAKAUAIRaLQCKkBvSiVMHdECO6e6QCKVuAIKQTKCoA39KEBCAdlIpEjzCRcPMLVmS6JjqgWoah5hMOHmPpSzF1vHZWdwH9Jxwfj4f5rFgah5hZ3AXD3Tjbj8/D/NasyXlZuDWJfK/stnaztTl4+XJDE8CNuigWMNXG1x3I8yVqvfvnfGt+pH7F5dviPd82/xf8pi0C89KjTdOLcVqWw7Va08ckpPWyxjtvnfGt+zZ7Ee/fO+Nb9SP2KtprpmafpXI556p6nzLCztnmiyHsFmyQyPvOoCztuaAHzJ+/fO+Nb9nH7FXUFMzT9K5Fz1T1PmWT37Z3xjfqR+xI9t874xv2bPYq8OqimYpelchn6nqfMvWbxGXK4S+WYh0nNAsAN2Dm1sPWVRd1bof7Ff++H+piqKzRSWJLe/o1XbeFv0r7He6N0j1RS7nAAnuooUBIk+aRtFKy9muzbMhkmTkyGPGjuyKBcWi3GyDQHqsrM5qKuzUIObsis2mFdIuDcNy4ppMWSVphaXEuBqqJBp43HdPQhU7FgfL+bY55oGmtc4i/OgswqRne2zeanSlC19uqxFIkrM4dExs8bcmNxj1APj7zXEHYeRG5B8Fue33C4cWeOOBmhroi4jU91uD6/WJWnUSko7yKm3Fy3FapMWvX3LJp5nLfy+uvS7TX96qUmYchaZBG4x798MeW+R71UtXMWPEWokFes2LIwW9j2g9C5r2g+okbryQCUzfpUSjxQAEwSkEUrcAUIKSgPTe/nUQT6UkUrcAkmkoBos+lBCSAaSEIBoKEeKASz4OC5MjQ9kEjmEbODHEOHmDW6wVbcjtdkQBsDWxGNkUNa2vJ3hY7ch48T5LE3JWwq50hGDTc218GbxvjmRhGOJkMbYuUyi+M7v0DWLsCwfBaw9ucn9iH7M/eWf27zXSRM1huzoyKBG8kJc7x81SSVwo04SheUVc716s4zajJ2LR7+Mn9iH7M/eS9/GSf1Idv8AoP3t1WCUBdcxT9KOXiKvqZaPfzk/sQfU/wDssjhnbLIkmhYWRaXysYajIIa57Wmjq2NFVC1ncB/Ssb9/F/NapKhTs/Kixr1G0sTLtxntJNHnjGa2MxmSFtuZbtMgZq3v/qKpnaNgblzhooCR9AAADvHot52i/tcfvsf/ACjWk7TfpmR+9f8A6isUIpWttivo3Xk2nd6pP7NWEJhC9J5RJlJCAdq49n+DYXuI5eZrrWWkgv7o1BoAazc7lU4K5xf2I797/wDM1cazdkk7XaR2oJXbavZN6fY3sf4t9wOov9w8zc1Nq5upvo1daWiaOB+LpL36DK6Xt4eVLzh/sR/74f62KoBpNAdSaA8z4LnTpXxeaWvedatW2Hyx1LZ3oOgcL4RwjKeYsfWZA0u6ztpoIFgvFXbhsufhdP7McAZhZAAkdJK+F90GhjdEkWoXd3bh/FURowv2sj6kX30ozWJ2ba0a+IrU3hV0k9N7aNxq0K3TdkGHEOZDK8gMMmh7Wg6G7uBIOxoFVFd4zjP+J5505Qti2hsr6xurgTwzqA/V6hPbv8KoVqwdne078MOjMYlgebMZNUSKJBo9R1BCxXg5R0bGmbyecYy821NGZ2a7LYubC6R8sgfGTzGANpgslpFtN2B4LP4NNltwgMZ8OPjiRxZmTvDTJFzDR5ZYQLHiSOiw39tWRxvjxMFkReDbi5oHQiyGDf6VicN7UxtxG4eVijIjjADe8Bek92wR4ea4TjUndtaL6E7aPo9EJUoWSavbS1t+ze/hBbYwZDpMhkDS9vRwLQ46T+zYsetZnHcNk3FcVkgBYIHv0no4tdYBHldH5loMztrHMyJsmCx3LeHAaxpjDTsG92+lDyXhxjtiZpYZ48cRzwuP5Qv16oyCDGQANjaxGnUsla1r9dRuVWndu9726Fxl4uyLJlGRnY4xw3R7jIYHxupu7nE2bF7VVOC1nZbibm4GXJEQWQyZHuexsI2jWz1i3Xv5rUZfbHHeea/h8b8ivhuLCCQKBJLbKx+C9rGY2OcZ2G14fr5tPoSa9qIIP6tN+ZZzEsLWF7N2zvqaz8MS8ytp37Tc4fEpczhOXJkkPkZzNLtIb8CNkjdhtYJ/gufqz8H7WxwY3uU4Ye12rmflKEmrbcEH9XSOvgquzoL6r10YOMpaLK+g8leSlGOm7tpJFJMoK7nnEmEBPwQCKCneyRQDHVIUgFMKgSEJ2oAISKCUeKAEk0kA01FMFVAYWZxj84P3cP8A28awwrfDxzh5gY2SD/zDWMa6UxQy6tADT8J29htLnNuLTSb+O/Y6QipJptL54/kXa8/km+uD/tlUSVcfwg8QhdyoYoy00yQuoAFhjqNux8AfmpU0rGT3wK5vKbZx2H4pJ1v86QXdnAFncB/Scb9/D/NasFZXCpQyeGR2zGSxvcfJrJGuca9QKy9TNQ/ki9ca7N5EvERksYDDzIXatTQdLAzVt1/VK1nG+yGZLkTSMjaWPkc5p1sFtJsbWr8zjWK4gNyISSQABJHZJ6AC+qcnF8ZpLXZETXA0WmSMFpHUEE7FfMjXqRtZalbUfUlk9OV7vW76zmY7D53xbfrs9qPeRnfFt+uz2rpf47xflMH2sftQ3isLt2P5g6aomvlAPkTGCAdxsVvxVXd0/ZjwlLe+ZzT3j53xbfrs9qD2Hzvi2/XZ7V078Zs/Zm+wyPuLzdxrGGzp42nxa97WOafJzXEFp9BCeKq7ujHhKW/qc194+d8W367ParHH2eyBwx2JoHPMmrTqbWnmB3wunQK0fjvF+Uwfax+1ev4xh0c3mx8q65mtui7qtV1drEspqStdbdxqOTU43s9aa1lGzuGy4vCXxTNAfzQ6gQ7ul7a3HqVIhfpc1x6BwJ9QNro/b3jGPJiGOOaN73PbTWPa4002SaOw2XNf+dV7clblFt7WeLKklJKOxL7OywQn3SyQd6MxTnWN29+SAtF+ZDSfmXK28Cy/k0v2b/L1Lf8A4MCfdUgvbku2/wDcjVPbI7zP0lZoQcJON9337nSvOM4Rk1v+vY6dyOTwxz5dTH+5Hx8t21PdqDRR/WJcAuYJ2T1P8UqXSnTwX06zjWq47aNQLaYPZ7LnYJYYS6M3TgYxZBo9SD1C1ZXQ/wAHTnuxchjXGwSGCzTHOj8PLfdK03CGJChTU54WVHM7OZcDDLLCWxt6uLozVmhsHE9SFqrVw4nj5uPh6M6YOhlkjZICXSytbs5xjf0HwTsb/is/ifZnhuO2OWaeSOJ47oJsyEgEdGkih6PFc45QkvN00nSWTXfl0fJQEWrPhYHDmY8c+VkPLpDXLjLSYzZ6tALqpvVe/FezUGLl48T5JDjT2L21tdYAFgVVuZvXS10VeN7aduzXbXY5uhK19GzbquVLxQFfc3s1w2HIZjySyiWUDlxjerJFl2g9SK3Xk3sxw9k4wpJ5TkvBLABQa2nEWdJF009TvXQLPiYPfyNeFn7cyipqzYHZJ0uZNi6yI4KL5K3LXAOYAOmog+rYrJm4BhTY802FJITj2X6xtI1oJdptoskA0RtYWnXgnr3ddVzKoTav89NdioFPxVs49wDEhxGZGO+V7pSxsAOkh73m6cA0Ed0O8twvfjPZOHGkxg58himkMcju6XNlLbZopvQkO630UWUQfXZu197yvJ5rds693+Cl7p2rlm9koDlsw4JZDJpMkxfpcIodtJFNA1Emq9Nr1x+zfD8iSXFx8iX3TFeouALS5po/qgOo7GiFPE07X08i+FqatHMpF7LacF7Pz5mowhtMoOLjp3N1W3oVg7Pdl8aeGXnPe3IhfIyQgjRG5pNEbd4ULWZ2PGK3NLMKV0kXuYlziT+cErR5Dwr6VKmUJJqOte2g1TyZtpy1P30lCniLHuYa1Nc5prcamkg7+sLzV0w+zuPI3Ky8t8kcbcmenAsDXMEhFi2kk6rHzKnTlmt/KLjFqcGOcKc5n6pIXSFVT0HKpRcNL2nmmlSKXQ5DJTSTrdVAVIpAQoAISTKRQAt9wzsjk5MQli0FjvN9EUSKIrYrQhACzJPY7cLmouP/AKV+NjpfEeykU7mulOQJGxxtIjawstjANiWm1je8bG88v6sf3Vz4lBK4qjNKymejPwbu4Ln+joXvIx/PL+iP7qXvHxvPL+iP7qoHj4qIKZmp62M9T/xrvgdB94+N55f1Y/uo94+N55f0R/dXPkWrmqnrZM/T/wAa74HRsbsbjxvZIPdRLHNeAWx0S1wcAdumy1vHOx+VJNNONAjc9zwXPohpN77bKln503f1RU6id8fT9klVptWwcnb6E0X06nwXWuwPDJMfFqVul73l+k9WtIaBY8D3br0rkid+tarU85HDexmjUVKWK1z6AXI+3nDJIsp8paeVK7Ux43F6RqaT4GwdlWyUyfX9K50cnzcrp9P2dK+UKrGzj1/QiF0Ds9w05fCnY8bmh5kO5um08O3r0f5qgHqo0F2qwc0rO2m5wpTUG7q901zLr/4cZHx0f+P2Lzh/B9O8WJYxuR3myNOxroQqbpRpCxhq+vp+zpjpej/b9HUOyfZaTBmdPJJGWGNzdtQq3MdZJ8KaVzAI0jyTVhBxbcne9tltRmpUUkkla19t9YBCAhdTkIrovYHHDcSXVIxpmLg0at2U0stw9e+3gudqL42nqAfWAVzq08cbXsdaNRU5YrXNhlY8zX+4X5GsNkaPhvdEZS0APt3Qd7f51eu2/DOdjRFksV4zS54LvhgR0dNeO3iubMaBsBQ9FKPIZ10i/UFmVJtxaelexqNZJSTTafvqR0vh2OHYMLuHnFEvdMskwuu6deqheq62O1fMvXtVhjJmwZo5otLZOpdQe06ZNTSLsVER6yFy98bT1APrpLkt/ZH0Bc/DNSxKW/qdfFLDhcd23cdN4/icziWJO2WLQG72/f8AJPL3eFbhwrfzRm4eri0WQJIuXyi74fe/JhzHCqq7mZW/g7y35mIWDo0fQEhC0X3R9ARZM1ZYtSa1byPKU7vDraevcdTxc6PH4lkcySMNymQvjdqFAxNMZa49ASSa+bxNLX9omZ8UExmz4eSWOAAYxr5WnbSNtnEX0J/qufMjaLpoHqr2JCFg3DRfqHsRZLazv03FeVa1bft3nQ+wbo8jFGNIRePNHIy/2Q/U3/EHj1FbHgnEI+Ic7mEAQZfMjO35tnwHfOWvXLHsB2IBHp3SMQIogV5Uk8mxNu+vp/0kMqcYpW1f1+i4dluPsPEZsmVwayfUxrnbBrWlvLs+ApnX0rdcK4Q3AyZ86eeIY7uY5hDjqIkfr3FVY6CibXN2gDbwUOSzrpF+oLUsn9LtoszMcot/JX03R0zseRNDlzF7GDLllcxpd3mNOpo1jw81hdguGHFyZRJLEeVG2M6X/Cc/S8FtgbU36VQXxtPUA+sAp8llVpFeVClPDvzJS0P2/ZfELytrSvffwOlziPOZPw/JkjE0Uhkie090xkl0R8LIDg1w/wD1c9z8Qwyvhc5rnMNFzDbTsDsfUQsblN6aRXlQpNjAOgr1UulKk6b16PsxVqqotWn6GEIRsupwAhHigpIACaYBTNoCJQVKyooBBNARugEhNJASvdIFOikqwFotK091ABKLQbRSAAhG6SAE7SpS3QB4/SkEwUrKrAk0FNSwFaSaEAWi0BPdAIlSv+ihaAUAwUWpC1FAFoKN0boAKQRSbQgC0J7osq2AihBQOqgBJPdCASZStS3QBe6QKClarA7RaAmbUAiU/FIhBJ9KAY8d/wDPzCSEIBUnSCgoARSEIASTKKQDA3UoYS9wY2tTjpFmhZ2Fk9BuoDqgBAXTiXCcaQjlFh5cc0ADXNYX5ETbieb+Hq7wJ6HbdD+CYv5sgNBmiBl5sZcyJ0LHH+8DIXM+e+gVLoJ0FxzMrWxPviejPxvfAu1bcXDG4FiuID2lpPID2c9l47pGv5jbrvaaYf8A1+hSxezmM8izpDo4zXOYXRSOEgI+DThbWda+F6VSyB/wJkC1c1O3831/JFVh6F0/BcoOC4smkubQ5MTtLJY7kc4DmO36Fh89jq9CxOLYcceFUVEcyF/NL4y6TXC7XTRu0B1Nrfp61V6TACKm76Zbe9pHVTTtFbevDveXSfg2G50jvgsayMsayWM2wxW6Sj5OFUT5nxChlcHxY2P0t1vMOprHTMa/U17LP7I2LtwTYBVPICiQpmpK3mfX8ms9H0Lp+C9ZfBceR7i4d5z9DXtliaGsGKHtdoAo98Fvh1Wq4tweGOFr2HYyxx83mMeHsdEHueWN+AQ4kUfBvpVcDQsjJ4hLK0Nkke9rfghxJA2q/XQpI0pRatLvqJVYyT8unv4LfDgQYzpJI2hz2xTaWPlhfqDJGCOQW0gF7de1HYHzWBgYkc+NEXhrnj3Q5sbXxxOmfrj0s1eA/OEf3dtlVaCCAmae/Tv5+/v3rDrr06NOjl7e3eoukfBcRjw+N+oNktspfGW62ZDWCIx13rbZ1dNr6LE4zwyE5cTWFpjlkk1ycxrW6jI62AUeXpFC6IdqFKr0EUipSTvi39SOtFq2FbOnDvoXRvZ7FDhqB0udFuJmDliRj+Z1FnQ5o677rEzsGOLBe1ukuPIeZC+NxdIS5srWtG7Q0hoI3VV0hSoIqUtF5bU+XHu4dWNnaNtDXPh3bWXmXBx5tMcgDWxRRFrGPhDna2gSu1ULLS3cE9XWaXjj8Lx4mExu1F+NJ33OiLXkxNILQd2uD9q/iqWWj/gQQLUzDtbF3/3Sa8Qr3wrvgW3hkMbsSKNwbb+e51Pia+WSOjHHZaSzVpIvyaR4rG41wrHihc+K3P5ujVzWOEY0scQWgd+nF7LHkq3QRQW1Tale/Dj88DnnVhth2Wvw+OPata28JwyIjTgZmucxhkAIMcZ1RucW0CZBpB9a9m9n8VxpvUFwkBmZ+TJxxI1t7aqkOmx5egqqZeXJMdUr3PcABbjZDR0C8NIWc3L1Pr+u+RvOwT/gui/PfMszuF4/uvHh0kRva10jua02XR3sQO7pcD160srH4JiOYxxDg5z9LmtlicYyJCDGbq+6LvxvbZVEAWo0Fp05O3m/v39+7GVUir+VdPxx4lzm4Fihkjtw1rntMolBDNOMyRttLbc4udp0jffxUZuBYjNZ3dojlcxvOj/LtjbG5kgIHd1Oc5un2Kqe6X8sRFx5QdqEd90PojVXnuvIgLKpT2yffHWadaGyC74F1HAMZjnEdWzR6S6WPSYy6IlooHUe+8U4C69BWNk8PxDrkcS13PdE7vt2kdK3RI0BtcsML3eVtpVIgJ0ipy9TI60bWwLvgWTL4Zix5ccPe5LxTvyjDTi5zWODxfdNNJseJWYeAYYdGwvJc/XuJGgF8LKezptqkGx8uipwAToK5uVl5n3tIqsbvyIu+TwzFdExm4ZHztMnMiD2vMrNEbh0eXW4Ak7Bu/ivSPhOLG4s7phMkJLXSMLqJlBDrFto6LANG/JUPSEEBZzMrWxGs/G98PfIuEPAsUsY5weHukpzWSwu5ZDyDGbq+6LvqbVf47isinfHGQWDTVO1VbQSCaG9k7eHRYFC/wDZAC6RhJO7lfv5MTqRkrKNu/gKTISQtnICEDqgo6oBtSemhNgBNCFSEQkhCIpIKQahCAB1QG/5IQqQg5AQhRlAplNCEIxqelCE2F2kCmEIRAQ6qQQhECLkIQowIL0A3QhUgnNQBsmhCic1Rd1TQgBAQhARcvTSEIRAi7qk1CEAP6IZ0QhANI9UIRkEm1CEKTa3ZJ3VNCEHp3UD0TQgIhBQhEUaGdU0ID//2Q==;" parent="1" vertex="1">
          <mxGeometry x="738" y="526.41" width="101.12" height="34.59" as="geometry" />
        </mxCell>
        <mxCell id="-BEQtp0c2egYkK-Se_0I-2094" value="" style="shape=image;verticalLabelPosition=bottom;labelBackgroundColor=#ffffff;verticalAlign=top;aspect=fixed;imageAspect=0;image=data:image/png,iVBORw0KGgoAAAANSUhEUgAAATYAAACjCAMAAAA3vsLfAAAAsVBMVEX///93eHv/1AD/0wB0dXj/3E1xcnWGh4mQkJOSk5bMzc729vbr6+yMjY99foFrbHCen6G4uLrd3d7o6Oilpaf/2Br5+fnV1db/+dz/66nj4+T///xjZGj//O3/++eAgYT/88P/9tDGxsf/5HL/5n//4F7/6Y3/3D//8bL/2Sn/99S6urv/+uOurrD/7aP/65n/6pP/31f/4mj/8br/2jRaW1//54P/3Uj/9cj/53r/2kWTE2c5AAAMfElEQVR4nO2cCXuyuBbHQ6K4gOIGWhDXulet1Vvb+f4f7J4TAgJiX3qnfW3vc/7PzLQsoeTnSc6SOIyRSCQSiUQikUgkEolEIpFIJBKJRCKRSCQSiUQikUgkEolEIpFIJBKJRCKRSCQSiUQikUgk0k+S5937DX6l9vt7v8FvlG/b/r3f4RfqUfDpvd/h92nNQet7v8Wv0wyxFe/9Fr9NR87tExfHe7/H75IHyJZHwflXP9hoOV/9yB+kveALj525eM7dxN10Jsafbur2+92rk8af2yXU3nzi/m6z+qmH/xsNcGLbsbHgIm8Q0uhXOsP+n15xuM042fqPm/vNKnBrV2/nvr/TrFYbf8vAp4iNP+HPl3wtthZaUadv4oGjrMFQP53IOuqb4IITv9DqtxN3XbWKHV2IRZedD2yv2u00G91Jvj78W40lNX5gPuciVxBi1Dvyp9VkrfrWsobQO3OoWxV48xIcl2TXJv2CDgY50S1r67C2te3X8DRim9SbfWvoMFff6FYdTMqoWJbWYls4xxoN+EAsawIfTsHSja5mMqdjWTrg2Azhl/JNc2oanfLGyDLxb9AZmE1fhdjJOS5Pi7YVTFm1CmvpJdMs1ZhT38K/Tda1GkZba+JVw6xv204V+t8qbKFNvSWNU2KzGo5pbVi7UDKNEtCulUxAY7qWy0y9xSYm2/Qdo6VX26yqGaxTcOFES7Zr6Ztb7wXW1v1b1rYED8p7/gqHqQ0eNUcTF3qAqpRZy4JfW1bbtaqu26kBNkPaixQO0hL+voGu91V3JDYdCFY6Af/NkLn4FKY3WWnLqmhxbrfad5mjgyECNsPCWbTWgHkOnl5p3HyxzqQ96fyVuc2z5QBlIwH/hSDEzlEJMdUHrnUAArylabldvQLqsG4BjrcxbHW0vBZg6itPILFpcFcHscHJSYlVESMrdxBhpcnMWr3RgEtGiE1+TFv4UNQgviWnuqn+HY8wR2Pjb5iVwjDNGYRUSvhyXQgvpLV1LVMCwHMFsIdO2tqagOkmtm5kbRv4QKr1NtxuMKOP2FrK2tBS4Ul/wvbXNAj8gd1jOEz9nsCx+ke5erllTvQK2tHQdYfQkdrQNbsu2E0MG85xVWtjVmH4JbEVYthwVFagdcPCkVsvg/3pLbOCl7SOK+e2baFrNsHkfgy2F4R2Oomzj8O0iEFInkqI29A0GZW1rM1Qq0B/jYZWr0PH0A6bypnV0Egmw7ocqHUVTLgaTPM1HMpbcL9obRUHWtfrNeRarUMbpzMsTfDSZKgZ3ZrBnG29XoJpsFUJcN9baxyi4rnHBURs70I8eHD4lqelYcpJBOY2x4yfiU8t6vfgTid+1onf4QSt422c8JKTvOyoc3fWSUW6Ry7mzINh6gWJVm61+p9Llf4vJIMPWTB6FvzI3gQ/sxUXD/mf0P5ruczPkaf8ARaMXgTv4TBdjuAE1cc/UhB8cMEhxvUWAmjBkX/g4vXeb/aTpYKPw5JDxMYGtjjjMD30MGu497v9YM0CbHM2kvY1FmLKpjBMwQhn9363n6s3NURhhEIA8ogOQuwhLeVj8Aqje7/dT5W3CIxNYLjxtMLADfKr9RhMbSf4iRbps7ULjI3zF8ymBidR9NhZcB9z06Kc7W7KrEglkpxqTZ6rqYqvIQ9r1zVxzCcSrSfl+J2GvFa+URuSLcthQa1TyZSZE8D/JN9W1P6B2Q1Myz+Ls+fZYuGfuL37OAgxCyi9FDvl6sG5ijo2LHmsZRS0jWGidVPeaSncZj14Tma9vSP/iB4CrwV/M638NfT/Qa/K2MTOn4oVRiAvYuUPuJi+cT6DVPX9dltTQxVi2ACFPDWMSt2WljwRvzfRuqnjoR5h04KGGZ3f6MGlCFtBy9J3YuspW+NiDD70LIpr5k2FPRiBW5gDs9VHi/TX2CpBj/RodUVh0/TKVRaRD1v9indX1+6ObRZi4zj3e0tbvA/AAu0nyEmXZ24XP1qkv8K2DXpkXYZWiE3Tr+oVubBphVqqWTuElMaWHKK6nn9h7NMaCW7bXE5vwQkfTGyPefwYbA6mttPqg0X6NLaqsrXY4keETbsq/efDlubt1G9ha3SS+j6XgMEH/HO6YINhOxOntz3ny6JYwNQGo9S+1TyFzc2wjws2LT2958SmWYm1FDUNZGD7Vs+ZEFjV6cRX5zg2MMGTmD6CX12JogR6sz6exGaUAnegxWejGDat0Eq0zotN02Phy1a/PC6F7Vs9Z1wDGJ1gUFNpb7Hz3k5aWdEO7BDS+uz2SWwNPQNOAls9YRC5scXc6ST+uHthe4dM4MxP7wIAJbfL+O+Cx3RjkT6BrakmtuTyZBwb3JkwxPzYwvCllXjanbCtYdoCD/C84u/Xu4x6ixi4G4v0cWyhO0iti4TYgp5FUbC8lCsAibcLnWjhrtjOXLyCsS3BZQr7enPWkV/AnTIfEMNmqhGaDhcCbIVtR1GNucU82IZV69LOKSle1XtiWwpEJnZT8TgXL1l72vYXc8tcpL9gU2FB4cqdKWwdVlbcmpdLObDVmeKN7lQ5Uct1C/fD5uGOhQM/QZ4wPvGHzK2AkKAqbpmL9BdsYXZwlbJH2JyhGm9RGJIPWwhF724jgK07YpsLfoBx+LATK08sjtk7KCFBVeY2z7gaYQvdwXXBIsLG2uE8FUbvObE54VRWiIZrNrau2Y7re1bS5G6sIl8NimI3Es/LGxtPB6twnA6uLypsNeXg0u4AdcHGuqr7YVyXExtrX0I1NXlmY0sqNht8pV64eBxxsX8SfLAXoxvYlitevB2EBNi0YV31KGPNL4aNTfRoUMtLObGFTlreLTP7+2Ebw+DzIVX3X8WBHcQgc24bn8V5jKmEHKbXi/Rm8k2HGelNHFsY4iurzI0tnAPwbjnC74dtwWFsQtrkrSBTh6AtA9sA62/oCR4CcztfeYXQ2qIBlFFUi2MLE4kg18+PLWwXXr0bNgg+VgyN7ShW/hMY3BU2TLDmQVLlB5t6rxfpo7kt7FVGUS2BzQjdIqYSn8DmBO1CFNnY9ISsb8CGG2NGY8zRZ+Kd7QBIGtvxJGa4SOoNdrMw7F2lU9PIk4azz7VTSGLDWndwY+tT2IJ20dOzsW2qCX1DuW2Oe7GKYGxPWLx9F+MUtt5BnN6Q2f4AzE7va5miXgUhl7htEnJLFyNT2JgyTFxc+Aw2JHVxOdnYvr1wNAAEvTFi2IsFfvfFS2ADN8F3kLLOFwKY7WU+KmtL6UX6WHIVFnT01P7sNDZWjRYXPoWNTaxL/eRO4S4WixDEwFuIPfPFicWweeABHv3xqw3MzrsQVLDAlQpC4ql8xC0Z8l5hi9xpxSx9BhvrXrDcBxsuw3tjIR7xqwhP7Ig7GCJsbwuxmM+5wBxCRbhPy/3jIlgXHCUelCgcRd4uUTm6xha508anrC2uu2DzIPjYo7H5bCpmONGNImwDTKbQzqYjPFwv99MVIJRCbMmdgskyZViutuJ1ygxsLCxkaL8K24PgNlujsfkYtLEZTlkSmyd3bAn7ec16x/3MVryEPdsv13JtMLlIn1pLKIfcYk4sC5uRyJZ+CTaYpcC8ZmhsSwjaIDnFJRbAtn7GSMM+v2PIoQxs9bJfRn4A60iJRfoUNrWYAH2/9CALG2tbvw/bK35fAzLRR8aKuL+ohwOVvcLQDGtrEtjicRfObczze+vR8fgAaT22iJRe8FNr8vE14Uxs0Qrx78EWbPZ7we8+9mREsRP7t5fYusFq9rxb9tbrt7fR8fl1djit7BCn/BGrj18tL4fRbHozQxpbPMv8MmzfGrfN0GB68v+/8CzO6/HDgtsXZvbqcF4sFgEpkZJcbI4v0l9vZnBVVSwKTW9gC4u2X4mtsU2o85VfxB3JHAmM7e2pt8IV+cQK1aUIHmCyT8XD9HE+3+3GY9/3PQ+/InNZpL/Gpnp0SYRuYYv87tdhK6SS0i/8YiQuw899rBqt7ExeYG+LxeHw/rpbjsfj9br3NPBRg0A++NpVFIRkYLukpwGpm9hC//F12FJK5yv/Rlg7s28AU9jsE2iFsrPEMehTysIWZk9hdegWNuaqVZtfgG3wIbHcCj1ssC0whY1t1C49mWYF2wKzyuWsm2zd1DO2Bd7Almdb4Bdi2/9T/AL9E+4JMcuoWppJs1YOLnRxLMrfMrswqcVby6PyZROqfEQlqx1za4mHNtTfS6p288vNJBKJRCKRSCQSiUQikUgkEolEIpFIJBKJRCKRSCQSiUQikUgkEolEIpFIJBKJRCKRSCQSifT1+i+sUQJ6Dzkq8wAAAABJRU5ErkJggg==;" parent="1" vertex="1">
          <mxGeometry x="730" y="632" width="79.88" height="42" as="geometry" />
        </mxCell>
        <mxCell id="-BEQtp0c2egYkK-Se_0I-2095" value="WEB LAYER" style="shape=ext;double=1;rounded=1;whiteSpace=wrap;html=1;shadow=1;glass=0;sketch=0;strokeWidth=1;fontSize=16;fontStyle=1;fillColor=#66B2FF;strokeColor=#CCFFFF;fontColor=#ffffff;" parent="1" vertex="1">
          <mxGeometry x="730" y="241" width="155" height="47" as="geometry" />
        </mxCell>
        <mxCell id="-BEQtp0c2egYkK-Se_0I-2096" style="edgeStyle=orthogonalEdgeStyle;shape=flexArrow;rounded=0;orthogonalLoop=1;jettySize=auto;html=1;entryX=0;entryY=0.5;entryDx=0;entryDy=0;fontSize=16;fontColor=#050505;startSize=6;endSize=5;strokeColor=#99CCFF;strokeWidth=1;fillColor=#DAE8FC;" parent="1" source="-BEQtp0c2egYkK-Se_0I-2073" target="2023" edge="1">
          <mxGeometry relative="1" as="geometry">
            <Array as="points">
              <mxPoint x="914" y="178" />
              <mxPoint x="914" y="418" />
            </Array>
          </mxGeometry>
        </mxCell>
      </root>
    </mxGraphModel>
  </diagram>
</mxfile>
